solid ASCII
  facet normal 0.000000e+00 0.000000e+00 1.000000e+00
    outer loop
      vertex   -1.840000e+01 7.160000e+01 -2.040000e+01
      vertex   1.840000e+01 7.160000e+01 -2.040000e+01
      vertex   -1.840000e+01 1.684000e+02 -2.040000e+01
    endloop
  endfacet
  facet normal -0.000000e+00 0.000000e+00 1.000000e+00
    outer loop
      vertex   -1.840000e+01 1.684000e+02 -2.040000e+01
      vertex   1.840000e+01 7.160000e+01 -2.040000e+01
      vertex   1.840000e+01 1.684000e+02 -2.040000e+01
    endloop
  endfacet
  facet normal 0.000000e+00 1.000000e+00 -0.000000e+00
    outer loop
      vertex   1.840000e+01 7.160000e+01 -2.040000e+01
      vertex   -1.840000e+01 7.160000e+01 -2.040000e+01
      vertex   1.840000e+01 7.160000e+01 -2.775558e-16
    endloop
  endfacet
  facet normal 0.000000e+00 1.000000e+00 0.000000e+00
    outer loop
      vertex   1.840000e+01 7.160000e+01 -2.775558e-16
      vertex   -1.840000e+01 7.160000e+01 -2.040000e+01
      vertex   -1.840000e+01 7.160000e+01 -2.775558e-16
    endloop
  endfacet
  facet normal 1.000000e+00 0.000000e+00 0.000000e+00
    outer loop
      vertex   -1.840000e+01 7.160000e+01 -2.040000e+01
      vertex   -1.840000e+01 1.684000e+02 -2.040000e+01
      vertex   -1.840000e+01 7.160000e+01 -2.775558e-16
    endloop
  endfacet
  facet normal 1.000000e+00 -0.000000e+00 0.000000e+00
    outer loop
      vertex   -1.840000e+01 7.160000e+01 -2.775558e-16
      vertex   -1.840000e+01 1.684000e+02 -2.040000e+01
      vertex   -1.840000e+01 1.684000e+02 -2.775558e-16
    endloop
  endfacet
  facet normal 0.000000e+00 0.000000e+00 -1.000000e+00
    outer loop
      vertex   -2.180000e+01 1.718000e+02 -1.000000e+00
      vertex   -2.000000e+01 1.700000e+02 -1.000000e+00
      vertex   -2.180000e+01 6.820000e+01 -1.000000e+00
    endloop
  endfacet
  facet normal 0.000000e+00 0.000000e+00 -1.000000e+00
    outer loop
      vertex   -2.180000e+01 6.820000e+01 -1.000000e+00
      vertex   -2.000000e+01 1.700000e+02 -1.000000e+00
      vertex   -2.000000e+01 7.000000e+01 -1.000000e+00
    endloop
  endfacet
  facet normal 0.000000e+00 0.000000e+00 -1.000000e+00
    outer loop
      vertex   -2.180000e+01 6.820000e+01 -1.000000e+00
      vertex   -2.000000e+01 7.000000e+01 -1.000000e+00
      vertex   2.000000e+01 7.000000e+01 -1.000000e+00
    endloop
  endfacet
  facet normal 0.000000e+00 0.000000e+00 -1.000000e+00
    outer loop
      vertex   -2.180000e+01 1.718000e+02 -1.000000e+00
      vertex   2.180000e+01 1.718000e+02 -1.000000e+00
      vertex   -2.000000e+01 1.700000e+02 -1.000000e+00
    endloop
  endfacet
  facet normal 0.000000e+00 0.000000e+00 -1.000000e+00
    outer loop
      vertex   -2.000000e+01 1.700000e+02 -1.000000e+00
      vertex   2.180000e+01 1.718000e+02 -1.000000e+00
      vertex   2.000000e+01 1.700000e+02 -1.000000e+00
    endloop
  endfacet
  facet normal 0.000000e+00 0.000000e+00 -1.000000e+00
    outer loop
      vertex   2.000000e+01 1.700000e+02 -1.000000e+00
      vertex   2.180000e+01 1.718000e+02 -1.000000e+00
      vertex   2.180000e+01 6.820000e+01 -1.000000e+00
    endloop
  endfacet
  facet normal 0.000000e+00 0.000000e+00 -1.000000e+00
    outer loop
      vertex   2.000000e+01 1.700000e+02 -1.000000e+00
      vertex   2.180000e+01 6.820000e+01 -1.000000e+00
      vertex   2.000000e+01 7.000000e+01 -1.000000e+00
    endloop
  endfacet
  facet normal 0.000000e+00 -0.000000e+00 -1.000000e+00
    outer loop
      vertex   2.000000e+01 7.000000e+01 -1.000000e+00
      vertex   2.180000e+01 6.820000e+01 -1.000000e+00
      vertex   -2.180000e+01 6.820000e+01 -1.000000e+00
    endloop
  endfacet
  facet normal -0.000000e+00 -1.000000e+00 -0.000000e+00
    outer loop
      vertex   2.180000e+01 6.820000e+01 -2.775558e-16
      vertex   -2.180000e+01 6.820000e+01 -2.775558e-16
      vertex   2.180000e+01 6.820000e+01 -1.000000e+00
    endloop
  endfacet
  facet normal 0.000000e+00 -1.000000e+00 0.000000e+00
    outer loop
      vertex   2.180000e+01 6.820000e+01 -1.000000e+00
      vertex   -2.180000e+01 6.820000e+01 -2.775558e-16
      vertex   -2.180000e+01 6.820000e+01 -1.000000e+00
    endloop
  endfacet
  facet normal 1.000000e+00 0.000000e+00 0.000000e+00
    outer loop
      vertex   2.180000e+01 1.718000e+02 -2.775558e-16
      vertex   2.180000e+01 6.820000e+01 -2.775558e-16
      vertex   2.180000e+01 1.718000e+02 -1.000000e+00
    endloop
  endfacet
  facet normal 1.000000e+00 0.000000e+00 0.000000e+00
    outer loop
      vertex   2.180000e+01 1.718000e+02 -1.000000e+00
      vertex   2.180000e+01 6.820000e+01 -2.775558e-16
      vertex   2.180000e+01 6.820000e+01 -1.000000e+00
    endloop
  endfacet
  facet normal -0.000000e+00 1.000000e+00 0.000000e+00
    outer loop
      vertex   -2.180000e+01 1.718000e+02 -2.775558e-16
      vertex   2.180000e+01 1.718000e+02 -2.775558e-16
      vertex   -2.180000e+01 1.718000e+02 -1.000000e+00
    endloop
  endfacet
  facet normal 0.000000e+00 1.000000e+00 0.000000e+00
    outer loop
      vertex   -2.180000e+01 1.718000e+02 -1.000000e+00
      vertex   2.180000e+01 1.718000e+02 -2.775558e-16
      vertex   2.180000e+01 1.718000e+02 -1.000000e+00
    endloop
  endfacet
  facet normal -1.000000e+00 0.000000e+00 0.000000e+00
    outer loop
      vertex   -2.180000e+01 6.820000e+01 -2.775558e-16
      vertex   -2.180000e+01 1.718000e+02 -2.775558e-16
      vertex   -2.180000e+01 6.820000e+01 -1.000000e+00
    endloop
  endfacet
  facet normal -1.000000e+00 0.000000e+00 0.000000e+00
    outer loop
      vertex   -2.180000e+01 6.820000e+01 -1.000000e+00
      vertex   -2.180000e+01 1.718000e+02 -2.775558e-16
      vertex   -2.180000e+01 1.718000e+02 -1.000000e+00
    endloop
  endfacet
  facet normal 0.000000e+00 0.000000e+00 1.000000e+00
    outer loop
      vertex   -1.840000e+01 1.684000e+02 -2.775558e-16
      vertex   -2.180000e+01 1.718000e+02 -2.775558e-16
      vertex   -1.840000e+01 7.160000e+01 -2.775558e-16
    endloop
  endfacet
  facet normal 0.000000e+00 0.000000e+00 1.000000e+00
    outer loop
      vertex   -1.840000e+01 7.160000e+01 -2.775558e-16
      vertex   -2.180000e+01 1.718000e+02 -2.775558e-16
      vertex   -2.180000e+01 6.820000e+01 -2.775558e-16
    endloop
  endfacet
  facet normal 0.000000e+00 0.000000e+00 1.000000e+00
    outer loop
      vertex   -1.840000e+01 7.160000e+01 -2.775558e-16
      vertex   -2.180000e+01 6.820000e+01 -2.775558e-16
      vertex   2.180000e+01 6.820000e+01 -2.775558e-16
    endloop
  endfacet
  facet normal 0.000000e+00 -0.000000e+00 1.000000e+00
    outer loop
      vertex   -1.840000e+01 1.684000e+02 -2.775558e-16
      vertex   1.840000e+01 1.684000e+02 -2.775558e-16
      vertex   -2.180000e+01 1.718000e+02 -2.775558e-16
    endloop
  endfacet
  facet normal -0.000000e+00 0.000000e+00 1.000000e+00
    outer loop
      vertex   -2.180000e+01 1.718000e+02 -2.775558e-16
      vertex   1.840000e+01 1.684000e+02 -2.775558e-16
      vertex   2.180000e+01 1.718000e+02 -2.775558e-16
    endloop
  endfacet
  facet normal 0.000000e+00 0.000000e+00 1.000000e+00
    outer loop
      vertex   2.180000e+01 1.718000e+02 -2.775558e-16
      vertex   1.840000e+01 1.684000e+02 -2.775558e-16
      vertex   1.840000e+01 7.160000e+01 -2.775558e-16
    endloop
  endfacet
  facet normal 0.000000e+00 0.000000e+00 1.000000e+00
    outer loop
      vertex   2.180000e+01 1.718000e+02 -2.775558e-16
      vertex   1.840000e+01 7.160000e+01 -2.775558e-16
      vertex   2.180000e+01 6.820000e+01 -2.775558e-16
    endloop
  endfacet
  facet normal 0.000000e+00 0.000000e+00 1.000000e+00
    outer loop
      vertex   2.180000e+01 6.820000e+01 -2.775558e-16
      vertex   1.840000e+01 7.160000e+01 -2.775558e-16
      vertex   -1.840000e+01 7.160000e+01 -2.775558e-16
    endloop
  endfacet
  facet normal 0.000000e+00 -1.000000e+00 0.000000e+00
    outer loop
      vertex   -1.840000e+01 1.684000e+02 -2.040000e+01
      vertex   1.840000e+01 1.684000e+02 -2.040000e+01
      vertex   -1.840000e+01 1.684000e+02 -2.775558e-16
    endloop
  endfacet
  facet normal 0.000000e+00 -1.000000e+00 0.000000e+00
    outer loop
      vertex   -1.840000e+01 1.684000e+02 -2.775558e-16
      vertex   1.840000e+01 1.684000e+02 -2.040000e+01
      vertex   1.840000e+01 1.684000e+02 -2.775558e-16
    endloop
  endfacet
  facet normal -1.000000e+00 0.000000e+00 0.000000e+00
    outer loop
      vertex   1.840000e+01 1.684000e+02 -2.040000e+01
      vertex   1.840000e+01 7.160000e+01 -2.040000e+01
      vertex   1.840000e+01 1.684000e+02 -2.775558e-16
    endloop
  endfacet
  facet normal -1.000000e+00 -0.000000e+00 0.000000e+00
    outer loop
      vertex   1.840000e+01 1.684000e+02 -2.775558e-16
      vertex   1.840000e+01 7.160000e+01 -2.040000e+01
      vertex   1.840000e+01 7.160000e+01 -2.775558e-16
    endloop
  endfacet
  facet normal -1.000000e+00 0.000000e+00 0.000000e+00
    outer loop
      vertex   -2.000000e+01 1.700000e+02 -2.200000e+01
      vertex   -2.000000e+01 7.000000e+01 -2.200000e+01
      vertex   -2.000000e+01 1.700000e+02 -1.000000e+00
    endloop
  endfacet
  facet normal -1.000000e+00 -0.000000e+00 0.000000e+00
    outer loop
      vertex   -2.000000e+01 1.700000e+02 -1.000000e+00
      vertex   -2.000000e+01 7.000000e+01 -2.200000e+01
      vertex   -2.000000e+01 7.000000e+01 -1.000000e+00
    endloop
  endfacet
  facet normal 0.000000e+00 -1.000000e+00 0.000000e+00
    outer loop
      vertex   -2.000000e+01 7.000000e+01 -2.200000e+01
      vertex   2.000000e+01 7.000000e+01 -2.200000e+01
      vertex   -2.000000e+01 7.000000e+01 -1.000000e+00
    endloop
  endfacet
  facet normal 0.000000e+00 -1.000000e+00 0.000000e+00
    outer loop
      vertex   -2.000000e+01 7.000000e+01 -1.000000e+00
      vertex   2.000000e+01 7.000000e+01 -2.200000e+01
      vertex   2.000000e+01 7.000000e+01 -1.000000e+00
    endloop
  endfacet
  facet normal 1.000000e+00 0.000000e+00 0.000000e+00
    outer loop
      vertex   2.000000e+01 7.000000e+01 -2.200000e+01
      vertex   2.000000e+01 1.700000e+02 -2.200000e+01
      vertex   2.000000e+01 7.000000e+01 -1.000000e+00
    endloop
  endfacet
  facet normal 1.000000e+00 -0.000000e+00 0.000000e+00
    outer loop
      vertex   2.000000e+01 7.000000e+01 -1.000000e+00
      vertex   2.000000e+01 1.700000e+02 -2.200000e+01
      vertex   2.000000e+01 1.700000e+02 -1.000000e+00
    endloop
  endfacet
  facet normal 0.000000e+00 1.000000e+00 -0.000000e+00
    outer loop
      vertex   2.000000e+01 1.700000e+02 -2.200000e+01
      vertex   -2.000000e+01 1.700000e+02 -2.200000e+01
      vertex   2.000000e+01 1.700000e+02 -1.000000e+00
    endloop
  endfacet
  facet normal 0.000000e+00 1.000000e+00 0.000000e+00
    outer loop
      vertex   2.000000e+01 1.700000e+02 -1.000000e+00
      vertex   -2.000000e+01 1.700000e+02 -2.200000e+01
      vertex   -2.000000e+01 1.700000e+02 -1.000000e+00
    endloop
  endfacet
  facet normal 0.000000e+00 0.000000e+00 -1.000000e+00
    outer loop
      vertex   -2.000000e+01 1.700000e+02 -2.200000e+01
      vertex   2.000000e+01 1.700000e+02 -2.200000e+01
      vertex   -2.000000e+01 7.000000e+01 -2.200000e+01
    endloop
  endfacet
  facet normal 0.000000e+00 0.000000e+00 -1.000000e+00
    outer loop
      vertex   -2.000000e+01 7.000000e+01 -2.200000e+01
      vertex   2.000000e+01 1.700000e+02 -2.200000e+01
      vertex   2.000000e+01 7.000000e+01 -2.200000e+01
    endloop
  endfacet
endsolid
