solid ASCII
  facet normal -9.054108e-01 4.447998e-02 -4.222000e-01
    outer loop
      vertex   -5.000000e+00 1.718000e+02 1.600000e+00
      vertex   -4.975924e+00 1.722901e+02 1.600000e+00
      vertex   -4.253908e+00 1.718000e+02 -2.775558e-16
    endloop
  endfacet
  facet normal -9.049393e-01 4.742586e-02 -4.228896e-01
    outer loop
      vertex   -4.253908e+00 1.718000e+02 -2.775558e-16
      vertex   -4.975924e+00 1.722901e+02 1.600000e+00
      vertex   -4.230604e+00 1.722447e+02 -2.775558e-16
    endloop
  endfacet
  facet normal -8.969646e-01 1.330521e-01 -4.216061e-01
    outer loop
      vertex   -4.230604e+00 1.722447e+02 -2.775558e-16
      vertex   -4.975924e+00 1.722901e+02 1.600000e+00
      vertex   -4.903926e+00 1.727755e+02 1.600000e+00
    endloop
  endfacet
  facet normal -8.947262e-01 1.417107e-01 -4.235365e-01
    outer loop
      vertex   -4.230604e+00 1.722447e+02 -2.775558e-16
      vertex   -4.903926e+00 1.727755e+02 1.600000e+00
      vertex   -4.160950e+00 1.726844e+02 -2.775558e-16
    endloop
  endfacet
  facet normal -8.798337e-01 2.203869e-01 -4.210965e-01
    outer loop
      vertex   -4.160950e+00 1.726844e+02 -2.775558e-16
      vertex   -4.903926e+00 1.727755e+02 1.600000e+00
      vertex   -4.784702e+00 1.732514e+02 1.600000e+00
    endloop
  endfacet
  facet normal -8.747647e-01 2.343925e-01 -4.240835e-01
    outer loop
      vertex   -4.160950e+00 1.726844e+02 -2.775558e-16
      vertex   -4.784702e+00 1.732514e+02 1.600000e+00
      vertex   -4.045707e+00 1.731145e+02 -2.775558e-16
    endloop
  endfacet
  facet normal -8.541810e-01 3.056309e-01 -4.206715e-01
    outer loop
      vertex   -4.045707e+00 1.731145e+02 -2.775558e-16
      vertex   -4.784702e+00 1.732514e+02 1.600000e+00
      vertex   -4.619398e+00 1.737134e+02 1.600000e+00
    endloop
  endfacet
  facet normal -8.452764e-01 3.244712e-01 -4.245307e-01
    outer loop
      vertex   -4.045707e+00 1.731145e+02 -2.775558e-16
      vertex   -4.619398e+00 1.737134e+02 1.600000e+00
      vertex   -3.886138e+00 1.735302e+02 -2.775558e-16
    endloop
  endfacet
  facet normal -8.202534e-01 3.879510e-01 -4.203313e-01
    outer loop
      vertex   -3.886138e+00 1.735302e+02 -2.775558e-16
      vertex   -4.619398e+00 1.737134e+02 1.600000e+00
      vertex   -4.409606e+00 1.741570e+02 1.600000e+00
    endloop
  endfacet
  facet normal -8.065841e-01 4.109751e-01 -4.248783e-01
    outer loop
      vertex   -3.886138e+00 1.735302e+02 -2.775558e-16
      vertex   -4.409606e+00 1.741570e+02 1.600000e+00
      vertex   -3.683992e+00 1.739270e+02 -2.775558e-16
    endloop
  endfacet
  facet normal -7.783792e-01 4.665425e-01 -4.200760e-01
    outer loop
      vertex   -3.683992e+00 1.739270e+02 -2.775558e-16
      vertex   -4.409606e+00 1.741570e+02 1.600000e+00
      vertex   -4.157348e+00 1.745779e+02 1.600000e+00
    endloop
  endfacet
  facet normal -7.591092e-01 4.929713e-01 -4.251265e-01
    outer loop
      vertex   -3.683992e+00 1.739270e+02 -2.775558e-16
      vertex   -4.157348e+00 1.745779e+02 1.600000e+00
      vertex   -3.441484e+00 1.743004e+02 -2.775558e-16
    endloop
  endfacet
  facet normal -7.289652e-01 5.406374e-01 -4.199058e-01
    outer loop
      vertex   -3.441484e+00 1.743004e+02 -2.775558e-16
      vertex   -4.157348e+00 1.745779e+02 1.600000e+00
      vertex   -3.865052e+00 1.749720e+02 1.600000e+00
    endloop
  endfacet
  facet normal -7.033668e-01 5.695752e-01 -4.252754e-01
    outer loop
      vertex   -3.441484e+00 1.743004e+02 -2.775558e-16
      vertex   -3.865052e+00 1.749720e+02 1.600000e+00
      vertex   -3.161270e+00 1.746464e+02 -2.775558e-16
    endloop
  endfacet
  facet normal -6.724925e-01 6.095117e-01 -4.198206e-01
    outer loop
      vertex   -3.161270e+00 1.746464e+02 -2.775558e-16
      vertex   -3.865052e+00 1.749720e+02 1.600000e+00
      vertex   -3.535534e+00 1.753355e+02 1.600000e+00
    endloop
  endfacet
  facet normal -6.399604e-01 6.399604e-01 -4.253250e-01
    outer loop
      vertex   -3.161270e+00 1.746464e+02 -2.775558e-16
      vertex   -3.535534e+00 1.753355e+02 1.600000e+00
      vertex   -2.846420e+00 1.749613e+02 -2.775558e-16
    endloop
  endfacet
  facet normal -6.095117e-01 6.724925e-01 -4.198206e-01
    outer loop
      vertex   -2.846420e+00 1.749613e+02 -2.775558e-16
      vertex   -3.535534e+00 1.753355e+02 1.600000e+00
      vertex   -3.171966e+00 1.756651e+02 1.600000e+00
    endloop
  endfacet
  facet normal -5.695752e-01 7.033668e-01 -4.252754e-01
    outer loop
      vertex   -2.846420e+00 1.749613e+02 -2.775558e-16
      vertex   -3.171966e+00 1.756651e+02 1.600000e+00
      vertex   -2.500384e+00 1.752415e+02 -2.775558e-16
    endloop
  endfacet
  facet normal -5.406374e-01 7.289652e-01 -4.199058e-01
    outer loop
      vertex   -2.500384e+00 1.752415e+02 -2.775558e-16
      vertex   -3.171966e+00 1.756651e+02 1.600000e+00
      vertex   -2.777851e+00 1.759573e+02 1.600000e+00
    endloop
  endfacet
  facet normal -4.929713e-01 7.591092e-01 -4.251265e-01
    outer loop
      vertex   -2.500384e+00 1.752415e+02 -2.775558e-16
      vertex   -2.777851e+00 1.759573e+02 1.600000e+00
      vertex   -2.126954e+00 1.754840e+02 -2.775558e-16
    endloop
  endfacet
  facet normal -4.665425e-01 7.783792e-01 -4.200760e-01
    outer loop
      vertex   -2.126954e+00 1.754840e+02 -2.775558e-16
      vertex   -2.777851e+00 1.759573e+02 1.600000e+00
      vertex   -2.356984e+00 1.762096e+02 1.600000e+00
    endloop
  endfacet
  facet normal -4.109751e-01 8.065841e-01 -4.248783e-01
    outer loop
      vertex   -2.126954e+00 1.754840e+02 -2.775558e-16
      vertex   -2.356984e+00 1.762096e+02 1.600000e+00
      vertex   -1.730220e+00 1.756861e+02 -2.775558e-16
    endloop
  endfacet
  facet normal -3.879510e-01 8.202534e-01 -4.203313e-01
    outer loop
      vertex   -1.730220e+00 1.756861e+02 -2.775558e-16
      vertex   -2.356984e+00 1.762096e+02 1.600000e+00
      vertex   -1.913417e+00 1.764194e+02 1.600000e+00
    endloop
  endfacet
  facet normal -3.244712e-01 8.452764e-01 -4.245307e-01
    outer loop
      vertex   -1.730220e+00 1.756861e+02 -2.775558e-16
      vertex   -1.913417e+00 1.764194e+02 1.600000e+00
      vertex   -1.314530e+00 1.758457e+02 -2.775558e-16
    endloop
  endfacet
  facet normal -3.056309e-01 8.541810e-01 -4.206715e-01
    outer loop
      vertex   -1.314530e+00 1.758457e+02 -2.775558e-16
      vertex   -1.913417e+00 1.764194e+02 1.600000e+00
      vertex   -1.451423e+00 1.765847e+02 1.600000e+00
    endloop
  endfacet
  facet normal -2.343925e-01 8.747647e-01 -4.240835e-01
    outer loop
      vertex   -1.314530e+00 1.758457e+02 -2.775558e-16
      vertex   -1.451423e+00 1.765847e+02 1.600000e+00
      vertex   -8.844372e-01 1.759609e+02 -2.775558e-16
    endloop
  endfacet
  facet normal -2.203869e-01 8.798337e-01 -4.210965e-01
    outer loop
      vertex   -8.844372e-01 1.759609e+02 -2.775558e-16
      vertex   -1.451423e+00 1.765847e+02 1.600000e+00
      vertex   -9.754516e-01 1.767039e+02 1.600000e+00
    endloop
  endfacet
  facet normal -1.417107e-01 8.947262e-01 -4.235365e-01
    outer loop
      vertex   -8.844372e-01 1.759609e+02 -2.775558e-16
      vertex   -9.754516e-01 1.767039e+02 1.600000e+00
      vertex   -4.446544e-01 1.760306e+02 -2.775558e-16
    endloop
  endfacet
  facet normal -1.330521e-01 8.969646e-01 -4.216061e-01
    outer loop
      vertex   -4.446544e-01 1.760306e+02 -2.775558e-16
      vertex   -9.754516e-01 1.767039e+02 1.600000e+00
      vertex   -4.900857e-01 1.767759e+02 1.600000e+00
    endloop
  endfacet
  facet normal -4.742586e-02 9.049393e-01 -4.228896e-01
    outer loop
      vertex   -4.446544e-01 1.760306e+02 -2.775558e-16
      vertex   -4.900857e-01 1.767759e+02 1.600000e+00
      vertex   2.604767e-16 1.760539e+02 -2.775558e-16
    endloop
  endfacet
  facet normal -4.447998e-02 9.054108e-01 -4.222000e-01
    outer loop
      vertex   2.604767e-16 1.760539e+02 -2.775558e-16
      vertex   -4.900857e-01 1.767759e+02 1.600000e+00
      vertex   3.061617e-16 1.768000e+02 1.600000e+00
    endloop
  endfacet
  facet normal 4.447998e-02 9.054108e-01 -4.222000e-01
    outer loop
      vertex   2.604767e-16 1.760539e+02 -2.775558e-16
      vertex   3.061617e-16 1.768000e+02 1.600000e+00
      vertex   4.900857e-01 1.767759e+02 1.600000e+00
    endloop
  endfacet
  facet normal 4.742586e-02 9.049393e-01 -4.228896e-01
    outer loop
      vertex   2.604767e-16 1.760539e+02 -2.775558e-16
      vertex   4.900857e-01 1.767759e+02 1.600000e+00
      vertex   4.446544e-01 1.760306e+02 -2.775558e-16
    endloop
  endfacet
  facet normal 1.330521e-01 8.969646e-01 -4.216061e-01
    outer loop
      vertex   4.446544e-01 1.760306e+02 -2.775558e-16
      vertex   4.900857e-01 1.767759e+02 1.600000e+00
      vertex   9.754516e-01 1.767039e+02 1.600000e+00
    endloop
  endfacet
  facet normal 1.417107e-01 8.947262e-01 -4.235365e-01
    outer loop
      vertex   4.446544e-01 1.760306e+02 -2.775558e-16
      vertex   9.754516e-01 1.767039e+02 1.600000e+00
      vertex   8.844372e-01 1.759609e+02 -2.775558e-16
    endloop
  endfacet
  facet normal 2.203869e-01 8.798337e-01 -4.210965e-01
    outer loop
      vertex   8.844372e-01 1.759609e+02 -2.775558e-16
      vertex   9.754516e-01 1.767039e+02 1.600000e+00
      vertex   1.451423e+00 1.765847e+02 1.600000e+00
    endloop
  endfacet
  facet normal 2.343925e-01 8.747647e-01 -4.240835e-01
    outer loop
      vertex   8.844372e-01 1.759609e+02 -2.775558e-16
      vertex   1.451423e+00 1.765847e+02 1.600000e+00
      vertex   1.314530e+00 1.758457e+02 -2.775558e-16
    endloop
  endfacet
  facet normal 3.056309e-01 8.541810e-01 -4.206715e-01
    outer loop
      vertex   1.314530e+00 1.758457e+02 -2.775558e-16
      vertex   1.451423e+00 1.765847e+02 1.600000e+00
      vertex   1.913417e+00 1.764194e+02 1.600000e+00
    endloop
  endfacet
  facet normal 3.244712e-01 8.452764e-01 -4.245307e-01
    outer loop
      vertex   1.314530e+00 1.758457e+02 -2.775558e-16
      vertex   1.913417e+00 1.764194e+02 1.600000e+00
      vertex   1.730220e+00 1.756861e+02 -2.775558e-16
    endloop
  endfacet
  facet normal 3.879510e-01 8.202534e-01 -4.203313e-01
    outer loop
      vertex   1.730220e+00 1.756861e+02 -2.775558e-16
      vertex   1.913417e+00 1.764194e+02 1.600000e+00
      vertex   2.356984e+00 1.762096e+02 1.600000e+00
    endloop
  endfacet
  facet normal 4.109751e-01 8.065841e-01 -4.248783e-01
    outer loop
      vertex   1.730220e+00 1.756861e+02 -2.775558e-16
      vertex   2.356984e+00 1.762096e+02 1.600000e+00
      vertex   2.126954e+00 1.754840e+02 -2.775558e-16
    endloop
  endfacet
  facet normal 4.665425e-01 7.783792e-01 -4.200760e-01
    outer loop
      vertex   2.126954e+00 1.754840e+02 -2.775558e-16
      vertex   2.356984e+00 1.762096e+02 1.600000e+00
      vertex   2.777851e+00 1.759573e+02 1.600000e+00
    endloop
  endfacet
  facet normal 4.929713e-01 7.591092e-01 -4.251265e-01
    outer loop
      vertex   2.126954e+00 1.754840e+02 -2.775558e-16
      vertex   2.777851e+00 1.759573e+02 1.600000e+00
      vertex   2.500384e+00 1.752415e+02 -2.775558e-16
    endloop
  endfacet
  facet normal 5.406374e-01 7.289652e-01 -4.199058e-01
    outer loop
      vertex   2.500384e+00 1.752415e+02 -2.775558e-16
      vertex   2.777851e+00 1.759573e+02 1.600000e+00
      vertex   3.171966e+00 1.756651e+02 1.600000e+00
    endloop
  endfacet
  facet normal 5.695752e-01 7.033668e-01 -4.252754e-01
    outer loop
      vertex   2.500384e+00 1.752415e+02 -2.775558e-16
      vertex   3.171966e+00 1.756651e+02 1.600000e+00
      vertex   2.846420e+00 1.749613e+02 -2.775558e-16
    endloop
  endfacet
  facet normal 6.095117e-01 6.724925e-01 -4.198206e-01
    outer loop
      vertex   2.846420e+00 1.749613e+02 -2.775558e-16
      vertex   3.171966e+00 1.756651e+02 1.600000e+00
      vertex   3.535534e+00 1.753355e+02 1.600000e+00
    endloop
  endfacet
  facet normal 6.399604e-01 6.399604e-01 -4.253250e-01
    outer loop
      vertex   2.846420e+00 1.749613e+02 -2.775558e-16
      vertex   3.535534e+00 1.753355e+02 1.600000e+00
      vertex   3.161270e+00 1.746464e+02 -2.775558e-16
    endloop
  endfacet
  facet normal 6.724925e-01 6.095117e-01 -4.198206e-01
    outer loop
      vertex   3.161270e+00 1.746464e+02 -2.775558e-16
      vertex   3.535534e+00 1.753355e+02 1.600000e+00
      vertex   3.865052e+00 1.749720e+02 1.600000e+00
    endloop
  endfacet
  facet normal 7.033668e-01 5.695752e-01 -4.252754e-01
    outer loop
      vertex   3.161270e+00 1.746464e+02 -2.775558e-16
      vertex   3.865052e+00 1.749720e+02 1.600000e+00
      vertex   3.441484e+00 1.743004e+02 -2.775558e-16
    endloop
  endfacet
  facet normal 7.289652e-01 5.406374e-01 -4.199058e-01
    outer loop
      vertex   3.441484e+00 1.743004e+02 -2.775558e-16
      vertex   3.865052e+00 1.749720e+02 1.600000e+00
      vertex   4.157348e+00 1.745779e+02 1.600000e+00
    endloop
  endfacet
  facet normal 7.591092e-01 4.929713e-01 -4.251265e-01
    outer loop
      vertex   3.441484e+00 1.743004e+02 -2.775558e-16
      vertex   4.157348e+00 1.745779e+02 1.600000e+00
      vertex   3.683992e+00 1.739270e+02 -2.775558e-16
    endloop
  endfacet
  facet normal 7.783792e-01 4.665425e-01 -4.200760e-01
    outer loop
      vertex   3.683992e+00 1.739270e+02 -2.775558e-16
      vertex   4.157348e+00 1.745779e+02 1.600000e+00
      vertex   4.409606e+00 1.741570e+02 1.600000e+00
    endloop
  endfacet
  facet normal 8.065841e-01 4.109751e-01 -4.248783e-01
    outer loop
      vertex   3.683992e+00 1.739270e+02 -2.775558e-16
      vertex   4.409606e+00 1.741570e+02 1.600000e+00
      vertex   3.886138e+00 1.735302e+02 -2.775558e-16
    endloop
  endfacet
  facet normal 8.202534e-01 3.879510e-01 -4.203313e-01
    outer loop
      vertex   3.886138e+00 1.735302e+02 -2.775558e-16
      vertex   4.409606e+00 1.741570e+02 1.600000e+00
      vertex   4.619398e+00 1.737134e+02 1.600000e+00
    endloop
  endfacet
  facet normal 8.452764e-01 3.244712e-01 -4.245307e-01
    outer loop
      vertex   3.886138e+00 1.735302e+02 -2.775558e-16
      vertex   4.619398e+00 1.737134e+02 1.600000e+00
      vertex   4.045707e+00 1.731145e+02 -2.775558e-16
    endloop
  endfacet
  facet normal 8.541810e-01 3.056309e-01 -4.206715e-01
    outer loop
      vertex   4.045707e+00 1.731145e+02 -2.775558e-16
      vertex   4.619398e+00 1.737134e+02 1.600000e+00
      vertex   4.784702e+00 1.732514e+02 1.600000e+00
    endloop
  endfacet
  facet normal 8.747647e-01 2.343925e-01 -4.240835e-01
    outer loop
      vertex   4.045707e+00 1.731145e+02 -2.775558e-16
      vertex   4.784702e+00 1.732514e+02 1.600000e+00
      vertex   4.160950e+00 1.726844e+02 -2.775558e-16
    endloop
  endfacet
  facet normal 8.798337e-01 2.203869e-01 -4.210965e-01
    outer loop
      vertex   4.160950e+00 1.726844e+02 -2.775558e-16
      vertex   4.784702e+00 1.732514e+02 1.600000e+00
      vertex   4.903926e+00 1.727755e+02 1.600000e+00
    endloop
  endfacet
  facet normal 8.947262e-01 1.417107e-01 -4.235365e-01
    outer loop
      vertex   4.160950e+00 1.726844e+02 -2.775558e-16
      vertex   4.903926e+00 1.727755e+02 1.600000e+00
      vertex   4.230604e+00 1.722447e+02 -2.775558e-16
    endloop
  endfacet
  facet normal 8.969646e-01 1.330521e-01 -4.216061e-01
    outer loop
      vertex   4.230604e+00 1.722447e+02 -2.775558e-16
      vertex   4.903926e+00 1.727755e+02 1.600000e+00
      vertex   4.975924e+00 1.722901e+02 1.600000e+00
    endloop
  endfacet
  facet normal 9.049393e-01 4.742586e-02 -4.228896e-01
    outer loop
      vertex   4.230604e+00 1.722447e+02 -2.775558e-16
      vertex   4.975924e+00 1.722901e+02 1.600000e+00
      vertex   4.253908e+00 1.718000e+02 -2.775558e-16
    endloop
  endfacet
  facet normal 9.054108e-01 4.447998e-02 -4.222000e-01
    outer loop
      vertex   4.253908e+00 1.718000e+02 -2.775558e-16
      vertex   4.975924e+00 1.722901e+02 1.600000e+00
      vertex   5.000000e+00 1.718000e+02 1.600000e+00
    endloop
  endfacet
  facet normal -9.063078e-01 0.000000e+00 -4.226183e-01
    outer loop
      vertex   -5.000000e+00 1.700000e+02 1.600000e+00
      vertex   -5.000000e+00 1.718000e+02 1.600000e+00
      vertex   -4.253908e+00 1.700000e+02 -2.775558e-16
    endloop
  endfacet
  facet normal -9.063078e-01 -4.472017e-16 -4.226183e-01
    outer loop
      vertex   -4.253908e+00 1.700000e+02 -2.775558e-16
      vertex   -5.000000e+00 1.718000e+02 1.600000e+00
      vertex   -4.253908e+00 1.718000e+02 -2.775558e-16
    endloop
  endfacet
  facet normal 9.063078e-01 0.000000e+00 -4.226183e-01
    outer loop
      vertex   5.000000e+00 1.718000e+02 1.600000e+00
      vertex   5.000000e+00 1.700000e+02 1.600000e+00
      vertex   4.253908e+00 1.718000e+02 -2.775558e-16
    endloop
  endfacet
  facet normal 9.063078e-01 0.000000e+00 -4.226183e-01
    outer loop
      vertex   4.253908e+00 1.718000e+02 -2.775558e-16
      vertex   5.000000e+00 1.700000e+02 1.600000e+00
      vertex   4.253908e+00 1.700000e+02 -2.775558e-16
    endloop
  endfacet
  facet normal 0.000000e+00 1.000000e+00 0.000000e+00
    outer loop
      vertex   -4.253908e+00 1.700000e+02 -2.775558e-16
      vertex   -2.000000e+01 1.700000e+02 -2.775558e-16
      vertex   -5.000000e+00 1.700000e+02 1.600000e+00
    endloop
  endfacet
  facet normal 0.000000e+00 1.000000e+00 0.000000e+00
    outer loop
      vertex   -5.000000e+00 1.700000e+02 1.600000e+00
      vertex   -2.000000e+01 1.700000e+02 -2.775558e-16
      vertex   -2.000000e+01 1.700000e+02 1.600000e+00
    endloop
  endfacet
  facet normal 0.000000e+00 1.000000e+00 0.000000e+00
    outer loop
      vertex   4.253908e+00 1.700000e+02 -2.775558e-16
      vertex   5.000000e+00 1.700000e+02 1.600000e+00
      vertex   2.000000e+01 1.700000e+02 -2.775558e-16
    endloop
  endfacet
  facet normal 0.000000e+00 1.000000e+00 -0.000000e+00
    outer loop
      vertex   2.000000e+01 1.700000e+02 -2.775558e-16
      vertex   5.000000e+00 1.700000e+02 1.600000e+00
      vertex   2.000000e+01 1.700000e+02 1.600000e+00
    endloop
  endfacet
  facet normal 9.054108e-01 -4.447998e-02 -4.222000e-01
    outer loop
      vertex   5.000000e+00 6.820000e+01 1.600000e+00
      vertex   4.975924e+00 6.770991e+01 1.600000e+00
      vertex   4.253908e+00 6.820000e+01 -2.775558e-16
    endloop
  endfacet
  facet normal 9.049393e-01 -4.742586e-02 -4.228896e-01
    outer loop
      vertex   4.253908e+00 6.820000e+01 -2.775558e-16
      vertex   4.975924e+00 6.770991e+01 1.600000e+00
      vertex   4.230604e+00 6.775535e+01 -2.775558e-16
    endloop
  endfacet
  facet normal 8.969646e-01 -1.330521e-01 -4.216061e-01
    outer loop
      vertex   4.230604e+00 6.775535e+01 -2.775558e-16
      vertex   4.975924e+00 6.770991e+01 1.600000e+00
      vertex   4.903926e+00 6.722455e+01 1.600000e+00
    endloop
  endfacet
  facet normal 8.947262e-01 -1.417107e-01 -4.235365e-01
    outer loop
      vertex   4.230604e+00 6.775535e+01 -2.775558e-16
      vertex   4.903926e+00 6.722455e+01 1.600000e+00
      vertex   4.160950e+00 6.731556e+01 -2.775558e-16
    endloop
  endfacet
  facet normal 8.798337e-01 -2.203869e-01 -4.210965e-01
    outer loop
      vertex   4.160950e+00 6.731556e+01 -2.775558e-16
      vertex   4.903926e+00 6.722455e+01 1.600000e+00
      vertex   4.784702e+00 6.674858e+01 1.600000e+00
    endloop
  endfacet
  facet normal 8.747647e-01 -2.343925e-01 -4.240835e-01
    outer loop
      vertex   4.160950e+00 6.731556e+01 -2.775558e-16
      vertex   4.784702e+00 6.674858e+01 1.600000e+00
      vertex   4.045707e+00 6.688547e+01 -2.775558e-16
    endloop
  endfacet
  facet normal 8.541810e-01 -3.056309e-01 -4.206715e-01
    outer loop
      vertex   4.045707e+00 6.688547e+01 -2.775558e-16
      vertex   4.784702e+00 6.674858e+01 1.600000e+00
      vertex   4.619398e+00 6.628658e+01 1.600000e+00
    endloop
  endfacet
  facet normal 8.452764e-01 -3.244712e-01 -4.245307e-01
    outer loop
      vertex   4.045707e+00 6.688547e+01 -2.775558e-16
      vertex   4.619398e+00 6.628658e+01 1.600000e+00
      vertex   3.886138e+00 6.646978e+01 -2.775558e-16
    endloop
  endfacet
  facet normal 8.202534e-01 -3.879510e-01 -4.203313e-01
    outer loop
      vertex   3.886138e+00 6.646978e+01 -2.775558e-16
      vertex   4.619398e+00 6.628658e+01 1.600000e+00
      vertex   4.409606e+00 6.584302e+01 1.600000e+00
    endloop
  endfacet
  facet normal 8.065841e-01 -4.109751e-01 -4.248783e-01
    outer loop
      vertex   3.886138e+00 6.646978e+01 -2.775558e-16
      vertex   4.409606e+00 6.584302e+01 1.600000e+00
      vertex   3.683992e+00 6.607305e+01 -2.775558e-16
    endloop
  endfacet
  facet normal 7.783792e-01 -4.665425e-01 -4.200760e-01
    outer loop
      vertex   3.683992e+00 6.607305e+01 -2.775558e-16
      vertex   4.409606e+00 6.584302e+01 1.600000e+00
      vertex   4.157348e+00 6.542215e+01 1.600000e+00
    endloop
  endfacet
  facet normal 7.591092e-01 -4.929713e-01 -4.251265e-01
    outer loop
      vertex   3.683992e+00 6.607305e+01 -2.775558e-16
      vertex   4.157348e+00 6.542215e+01 1.600000e+00
      vertex   3.441484e+00 6.569962e+01 -2.775558e-16
    endloop
  endfacet
  facet normal 7.289652e-01 -5.406374e-01 -4.199058e-01
    outer loop
      vertex   3.441484e+00 6.569962e+01 -2.775558e-16
      vertex   4.157348e+00 6.542215e+01 1.600000e+00
      vertex   3.865052e+00 6.502803e+01 1.600000e+00
    endloop
  endfacet
  facet normal 7.033668e-01 -5.695752e-01 -4.252754e-01
    outer loop
      vertex   3.441484e+00 6.569962e+01 -2.775558e-16
      vertex   3.865052e+00 6.502803e+01 1.600000e+00
      vertex   3.161270e+00 6.535358e+01 -2.775558e-16
    endloop
  endfacet
  facet normal 6.724925e-01 -6.095117e-01 -4.198206e-01
    outer loop
      vertex   3.161270e+00 6.535358e+01 -2.775558e-16
      vertex   3.865052e+00 6.502803e+01 1.600000e+00
      vertex   3.535534e+00 6.466447e+01 1.600000e+00
    endloop
  endfacet
  facet normal 6.399604e-01 -6.399604e-01 -4.253250e-01
    outer loop
      vertex   3.161270e+00 6.535358e+01 -2.775558e-16
      vertex   3.535534e+00 6.466447e+01 1.600000e+00
      vertex   2.846420e+00 6.503873e+01 -2.775558e-16
    endloop
  endfacet
  facet normal 6.095117e-01 -6.724925e-01 -4.198206e-01
    outer loop
      vertex   2.846420e+00 6.503873e+01 -2.775558e-16
      vertex   3.535534e+00 6.466447e+01 1.600000e+00
      vertex   3.171966e+00 6.433495e+01 1.600000e+00
    endloop
  endfacet
  facet normal 5.695752e-01 -7.033668e-01 -4.252754e-01
    outer loop
      vertex   2.846420e+00 6.503873e+01 -2.775558e-16
      vertex   3.171966e+00 6.433495e+01 1.600000e+00
      vertex   2.500384e+00 6.475852e+01 -2.775558e-16
    endloop
  endfacet
  facet normal 5.406374e-01 -7.289652e-01 -4.199058e-01
    outer loop
      vertex   2.500384e+00 6.475852e+01 -2.775558e-16
      vertex   3.171966e+00 6.433495e+01 1.600000e+00
      vertex   2.777851e+00 6.404265e+01 1.600000e+00
    endloop
  endfacet
  facet normal 4.929713e-01 -7.591092e-01 -4.251265e-01
    outer loop
      vertex   2.500384e+00 6.475852e+01 -2.775558e-16
      vertex   2.777851e+00 6.404265e+01 1.600000e+00
      vertex   2.126954e+00 6.451601e+01 -2.775558e-16
    endloop
  endfacet
  facet normal 4.665425e-01 -7.783792e-01 -4.200760e-01
    outer loop
      vertex   2.126954e+00 6.451601e+01 -2.775558e-16
      vertex   2.777851e+00 6.404265e+01 1.600000e+00
      vertex   2.356984e+00 6.379039e+01 1.600000e+00
    endloop
  endfacet
  facet normal 4.109751e-01 -8.065841e-01 -4.248783e-01
    outer loop
      vertex   2.126954e+00 6.451601e+01 -2.775558e-16
      vertex   2.356984e+00 6.379039e+01 1.600000e+00
      vertex   1.730220e+00 6.431386e+01 -2.775558e-16
    endloop
  endfacet
  facet normal 3.879510e-01 -8.202534e-01 -4.203313e-01
    outer loop
      vertex   1.730220e+00 6.431386e+01 -2.775558e-16
      vertex   2.356984e+00 6.379039e+01 1.600000e+00
      vertex   1.913417e+00 6.358060e+01 1.600000e+00
    endloop
  endfacet
  facet normal 3.244712e-01 -8.452764e-01 -4.245307e-01
    outer loop
      vertex   1.730220e+00 6.431386e+01 -2.775558e-16
      vertex   1.913417e+00 6.358060e+01 1.600000e+00
      vertex   1.314530e+00 6.415429e+01 -2.775558e-16
    endloop
  endfacet
  facet normal 3.056309e-01 -8.541810e-01 -4.206715e-01
    outer loop
      vertex   1.314530e+00 6.415429e+01 -2.775558e-16
      vertex   1.913417e+00 6.358060e+01 1.600000e+00
      vertex   1.451423e+00 6.341530e+01 1.600000e+00
    endloop
  endfacet
  facet normal 2.343925e-01 -8.747647e-01 -4.240835e-01
    outer loop
      vertex   1.314530e+00 6.415429e+01 -2.775558e-16
      vertex   1.451423e+00 6.341530e+01 1.600000e+00
      vertex   8.844372e-01 6.403905e+01 -2.775558e-16
    endloop
  endfacet
  facet normal 2.203869e-01 -8.798337e-01 -4.210965e-01
    outer loop
      vertex   8.844372e-01 6.403905e+01 -2.775558e-16
      vertex   1.451423e+00 6.341530e+01 1.600000e+00
      vertex   9.754516e-01 6.329607e+01 1.600000e+00
    endloop
  endfacet
  facet normal 1.417107e-01 -8.947262e-01 -4.235365e-01
    outer loop
      vertex   8.844372e-01 6.403905e+01 -2.775558e-16
      vertex   9.754516e-01 6.329607e+01 1.600000e+00
      vertex   4.446544e-01 6.396940e+01 -2.775558e-16
    endloop
  endfacet
  facet normal 1.330521e-01 -8.969646e-01 -4.216061e-01
    outer loop
      vertex   4.446544e-01 6.396940e+01 -2.775558e-16
      vertex   9.754516e-01 6.329607e+01 1.600000e+00
      vertex   4.900857e-01 6.322408e+01 1.600000e+00
    endloop
  endfacet
  facet normal 4.742586e-02 -9.049393e-01 -4.228896e-01
    outer loop
      vertex   4.446544e-01 6.396940e+01 -2.775558e-16
      vertex   4.900857e-01 6.322408e+01 1.600000e+00
      vertex   1.987658e-16 6.394609e+01 -2.775558e-16
    endloop
  endfacet
  facet normal 4.447998e-02 -9.054108e-01 -4.222000e-01
    outer loop
      vertex   1.987658e-16 6.394609e+01 -2.775558e-16
      vertex   4.900857e-01 6.322408e+01 1.600000e+00
      vertex   1.530808e-16 6.320000e+01 1.600000e+00
    endloop
  endfacet
  facet normal -4.447998e-02 -9.054108e-01 -4.222000e-01
    outer loop
      vertex   1.987658e-16 6.394609e+01 -2.775558e-16
      vertex   1.530808e-16 6.320000e+01 1.600000e+00
      vertex   -4.900857e-01 6.322408e+01 1.600000e+00
    endloop
  endfacet
  facet normal -4.742586e-02 -9.049393e-01 -4.228896e-01
    outer loop
      vertex   1.987658e-16 6.394609e+01 -2.775558e-16
      vertex   -4.900857e-01 6.322408e+01 1.600000e+00
      vertex   -4.446544e-01 6.396940e+01 -2.775558e-16
    endloop
  endfacet
  facet normal -1.330521e-01 -8.969646e-01 -4.216061e-01
    outer loop
      vertex   -4.446544e-01 6.396940e+01 -2.775558e-16
      vertex   -4.900857e-01 6.322408e+01 1.600000e+00
      vertex   -9.754516e-01 6.329607e+01 1.600000e+00
    endloop
  endfacet
  facet normal -1.417107e-01 -8.947262e-01 -4.235365e-01
    outer loop
      vertex   -4.446544e-01 6.396940e+01 -2.775558e-16
      vertex   -9.754516e-01 6.329607e+01 1.600000e+00
      vertex   -8.844372e-01 6.403905e+01 -2.775558e-16
    endloop
  endfacet
  facet normal -2.203869e-01 -8.798337e-01 -4.210965e-01
    outer loop
      vertex   -8.844372e-01 6.403905e+01 -2.775558e-16
      vertex   -9.754516e-01 6.329607e+01 1.600000e+00
      vertex   -1.451423e+00 6.341530e+01 1.600000e+00
    endloop
  endfacet
  facet normal -2.343925e-01 -8.747647e-01 -4.240835e-01
    outer loop
      vertex   -8.844372e-01 6.403905e+01 -2.775558e-16
      vertex   -1.451423e+00 6.341530e+01 1.600000e+00
      vertex   -1.314530e+00 6.415429e+01 -2.775558e-16
    endloop
  endfacet
  facet normal -3.056309e-01 -8.541810e-01 -4.206715e-01
    outer loop
      vertex   -1.314530e+00 6.415429e+01 -2.775558e-16
      vertex   -1.451423e+00 6.341530e+01 1.600000e+00
      vertex   -1.913417e+00 6.358060e+01 1.600000e+00
    endloop
  endfacet
  facet normal -3.244712e-01 -8.452764e-01 -4.245307e-01
    outer loop
      vertex   -1.314530e+00 6.415429e+01 -2.775558e-16
      vertex   -1.913417e+00 6.358060e+01 1.600000e+00
      vertex   -1.730220e+00 6.431386e+01 -2.775558e-16
    endloop
  endfacet
  facet normal -3.879510e-01 -8.202534e-01 -4.203313e-01
    outer loop
      vertex   -1.730220e+00 6.431386e+01 -2.775558e-16
      vertex   -1.913417e+00 6.358060e+01 1.600000e+00
      vertex   -2.356984e+00 6.379039e+01 1.600000e+00
    endloop
  endfacet
  facet normal -4.109751e-01 -8.065841e-01 -4.248783e-01
    outer loop
      vertex   -1.730220e+00 6.431386e+01 -2.775558e-16
      vertex   -2.356984e+00 6.379039e+01 1.600000e+00
      vertex   -2.126954e+00 6.451601e+01 -2.775558e-16
    endloop
  endfacet
  facet normal -4.665425e-01 -7.783792e-01 -4.200760e-01
    outer loop
      vertex   -2.126954e+00 6.451601e+01 -2.775558e-16
      vertex   -2.356984e+00 6.379039e+01 1.600000e+00
      vertex   -2.777851e+00 6.404265e+01 1.600000e+00
    endloop
  endfacet
  facet normal -4.929713e-01 -7.591092e-01 -4.251265e-01
    outer loop
      vertex   -2.126954e+00 6.451601e+01 -2.775558e-16
      vertex   -2.777851e+00 6.404265e+01 1.600000e+00
      vertex   -2.500384e+00 6.475852e+01 -2.775558e-16
    endloop
  endfacet
  facet normal -5.406374e-01 -7.289652e-01 -4.199058e-01
    outer loop
      vertex   -2.500384e+00 6.475852e+01 -2.775558e-16
      vertex   -2.777851e+00 6.404265e+01 1.600000e+00
      vertex   -3.171966e+00 6.433495e+01 1.600000e+00
    endloop
  endfacet
  facet normal -5.695752e-01 -7.033668e-01 -4.252754e-01
    outer loop
      vertex   -2.500384e+00 6.475852e+01 -2.775558e-16
      vertex   -3.171966e+00 6.433495e+01 1.600000e+00
      vertex   -2.846420e+00 6.503873e+01 -2.775558e-16
    endloop
  endfacet
  facet normal -6.095117e-01 -6.724925e-01 -4.198206e-01
    outer loop
      vertex   -2.846420e+00 6.503873e+01 -2.775558e-16
      vertex   -3.171966e+00 6.433495e+01 1.600000e+00
      vertex   -3.535534e+00 6.466447e+01 1.600000e+00
    endloop
  endfacet
  facet normal -6.399604e-01 -6.399604e-01 -4.253250e-01
    outer loop
      vertex   -2.846420e+00 6.503873e+01 -2.775558e-16
      vertex   -3.535534e+00 6.466447e+01 1.600000e+00
      vertex   -3.161270e+00 6.535358e+01 -2.775558e-16
    endloop
  endfacet
  facet normal -6.724925e-01 -6.095117e-01 -4.198206e-01
    outer loop
      vertex   -3.161270e+00 6.535358e+01 -2.775558e-16
      vertex   -3.535534e+00 6.466447e+01 1.600000e+00
      vertex   -3.865052e+00 6.502803e+01 1.600000e+00
    endloop
  endfacet
  facet normal -7.033668e-01 -5.695752e-01 -4.252754e-01
    outer loop
      vertex   -3.161270e+00 6.535358e+01 -2.775558e-16
      vertex   -3.865052e+00 6.502803e+01 1.600000e+00
      vertex   -3.441484e+00 6.569962e+01 -2.775558e-16
    endloop
  endfacet
  facet normal -7.289652e-01 -5.406374e-01 -4.199058e-01
    outer loop
      vertex   -3.441484e+00 6.569962e+01 -2.775558e-16
      vertex   -3.865052e+00 6.502803e+01 1.600000e+00
      vertex   -4.157348e+00 6.542215e+01 1.600000e+00
    endloop
  endfacet
  facet normal -7.591092e-01 -4.929713e-01 -4.251265e-01
    outer loop
      vertex   -3.441484e+00 6.569962e+01 -2.775558e-16
      vertex   -4.157348e+00 6.542215e+01 1.600000e+00
      vertex   -3.683992e+00 6.607305e+01 -2.775558e-16
    endloop
  endfacet
  facet normal -7.783792e-01 -4.665425e-01 -4.200760e-01
    outer loop
      vertex   -3.683992e+00 6.607305e+01 -2.775558e-16
      vertex   -4.157348e+00 6.542215e+01 1.600000e+00
      vertex   -4.409606e+00 6.584302e+01 1.600000e+00
    endloop
  endfacet
  facet normal -8.065841e-01 -4.109751e-01 -4.248783e-01
    outer loop
      vertex   -3.683992e+00 6.607305e+01 -2.775558e-16
      vertex   -4.409606e+00 6.584302e+01 1.600000e+00
      vertex   -3.886138e+00 6.646978e+01 -2.775558e-16
    endloop
  endfacet
  facet normal -8.202534e-01 -3.879510e-01 -4.203313e-01
    outer loop
      vertex   -3.886138e+00 6.646978e+01 -2.775558e-16
      vertex   -4.409606e+00 6.584302e+01 1.600000e+00
      vertex   -4.619398e+00 6.628658e+01 1.600000e+00
    endloop
  endfacet
  facet normal -8.452764e-01 -3.244712e-01 -4.245307e-01
    outer loop
      vertex   -3.886138e+00 6.646978e+01 -2.775558e-16
      vertex   -4.619398e+00 6.628658e+01 1.600000e+00
      vertex   -4.045707e+00 6.688547e+01 -2.775558e-16
    endloop
  endfacet
  facet normal -8.541810e-01 -3.056309e-01 -4.206715e-01
    outer loop
      vertex   -4.045707e+00 6.688547e+01 -2.775558e-16
      vertex   -4.619398e+00 6.628658e+01 1.600000e+00
      vertex   -4.784702e+00 6.674858e+01 1.600000e+00
    endloop
  endfacet
  facet normal -8.747647e-01 -2.343925e-01 -4.240835e-01
    outer loop
      vertex   -4.045707e+00 6.688547e+01 -2.775558e-16
      vertex   -4.784702e+00 6.674858e+01 1.600000e+00
      vertex   -4.160950e+00 6.731556e+01 -2.775558e-16
    endloop
  endfacet
  facet normal -8.798337e-01 -2.203869e-01 -4.210965e-01
    outer loop
      vertex   -4.160950e+00 6.731556e+01 -2.775558e-16
      vertex   -4.784702e+00 6.674858e+01 1.600000e+00
      vertex   -4.903926e+00 6.722455e+01 1.600000e+00
    endloop
  endfacet
  facet normal -8.947262e-01 -1.417107e-01 -4.235365e-01
    outer loop
      vertex   -4.160950e+00 6.731556e+01 -2.775558e-16
      vertex   -4.903926e+00 6.722455e+01 1.600000e+00
      vertex   -4.230604e+00 6.775535e+01 -2.775558e-16
    endloop
  endfacet
  facet normal -8.969646e-01 -1.330521e-01 -4.216061e-01
    outer loop
      vertex   -4.230604e+00 6.775535e+01 -2.775558e-16
      vertex   -4.903926e+00 6.722455e+01 1.600000e+00
      vertex   -4.975924e+00 6.770991e+01 1.600000e+00
    endloop
  endfacet
  facet normal -9.049393e-01 -4.742586e-02 -4.228896e-01
    outer loop
      vertex   -4.230604e+00 6.775535e+01 -2.775558e-16
      vertex   -4.975924e+00 6.770991e+01 1.600000e+00
      vertex   -4.253908e+00 6.820000e+01 -2.775558e-16
    endloop
  endfacet
  facet normal -9.054108e-01 -4.447998e-02 -4.222000e-01
    outer loop
      vertex   -4.253908e+00 6.820000e+01 -2.775558e-16
      vertex   -4.975924e+00 6.770991e+01 1.600000e+00
      vertex   -5.000000e+00 6.820000e+01 1.600000e+00
    endloop
  endfacet
  facet normal 9.063078e-01 0.000000e+00 -4.226183e-01
    outer loop
      vertex   5.000000e+00 7.000000e+01 1.600000e+00
      vertex   5.000000e+00 6.820000e+01 1.600000e+00
      vertex   4.253908e+00 7.000000e+01 -2.775558e-16
    endloop
  endfacet
  facet normal 9.063078e-01 4.472017e-16 -4.226183e-01
    outer loop
      vertex   4.253908e+00 7.000000e+01 -2.775558e-16
      vertex   5.000000e+00 6.820000e+01 1.600000e+00
      vertex   4.253908e+00 6.820000e+01 -2.775558e-16
    endloop
  endfacet
  facet normal -9.063078e-01 0.000000e+00 -4.226183e-01
    outer loop
      vertex   -5.000000e+00 6.820000e+01 1.600000e+00
      vertex   -5.000000e+00 7.000000e+01 1.600000e+00
      vertex   -4.253908e+00 6.820000e+01 -2.775558e-16
    endloop
  endfacet
  facet normal -9.063078e-01 -8.944034e-16 -4.226183e-01
    outer loop
      vertex   -4.253908e+00 6.820000e+01 -2.775558e-16
      vertex   -5.000000e+00 7.000000e+01 1.600000e+00
      vertex   -4.253908e+00 7.000000e+01 -2.775558e-16
    endloop
  endfacet
  facet normal 0.000000e+00 -1.000000e+00 0.000000e+00
    outer loop
      vertex   4.253908e+00 7.000000e+01 -2.775558e-16
      vertex   2.000000e+01 7.000000e+01 -2.775558e-16
      vertex   5.000000e+00 7.000000e+01 1.600000e+00
    endloop
  endfacet
  facet normal 0.000000e+00 -1.000000e+00 0.000000e+00
    outer loop
      vertex   5.000000e+00 7.000000e+01 1.600000e+00
      vertex   2.000000e+01 7.000000e+01 -2.775558e-16
      vertex   2.000000e+01 7.000000e+01 1.600000e+00
    endloop
  endfacet
  facet normal 0.000000e+00 -1.000000e+00 0.000000e+00
    outer loop
      vertex   -4.253908e+00 7.000000e+01 -2.775558e-16
      vertex   -5.000000e+00 7.000000e+01 1.600000e+00
      vertex   -2.000000e+01 7.000000e+01 -2.775558e-16
    endloop
  endfacet
  facet normal 0.000000e+00 -1.000000e+00 0.000000e+00
    outer loop
      vertex   -2.000000e+01 7.000000e+01 -2.775558e-16
      vertex   -5.000000e+00 7.000000e+01 1.600000e+00
      vertex   -2.000000e+01 7.000000e+01 1.600000e+00
    endloop
  endfacet
  facet normal -0.000000e+00 0.000000e+00 -1.000000e+00
    outer loop
      vertex   -1.670000e+01 7.330000e+01 -3.000000e+00
      vertex   -1.840000e+01 7.160000e+01 -3.000000e+00
      vertex   -1.670000e+01 1.667000e+02 -3.000000e+00
    endloop
  endfacet
  facet normal -0.000000e+00 0.000000e+00 -1.000000e+00
    outer loop
      vertex   -1.670000e+01 1.667000e+02 -3.000000e+00
      vertex   -1.840000e+01 7.160000e+01 -3.000000e+00
      vertex   -1.840000e+01 1.684000e+02 -3.000000e+00
    endloop
  endfacet
  facet normal 0.000000e+00 0.000000e+00 -1.000000e+00
    outer loop
      vertex   -1.670000e+01 1.667000e+02 -3.000000e+00
      vertex   -1.840000e+01 1.684000e+02 -3.000000e+00
      vertex   1.840000e+01 1.684000e+02 -3.000000e+00
    endloop
  endfacet
  facet normal 0.000000e+00 -0.000000e+00 -1.000000e+00
    outer loop
      vertex   -1.670000e+01 7.330000e+01 -3.000000e+00
      vertex   1.670000e+01 7.330000e+01 -3.000000e+00
      vertex   -1.840000e+01 7.160000e+01 -3.000000e+00
    endloop
  endfacet
  facet normal 0.000000e+00 0.000000e+00 -1.000000e+00
    outer loop
      vertex   -1.840000e+01 7.160000e+01 -3.000000e+00
      vertex   1.670000e+01 7.330000e+01 -3.000000e+00
      vertex   1.840000e+01 7.160000e+01 -3.000000e+00
    endloop
  endfacet
  facet normal 0.000000e+00 0.000000e+00 -1.000000e+00
    outer loop
      vertex   1.840000e+01 7.160000e+01 -3.000000e+00
      vertex   1.670000e+01 7.330000e+01 -3.000000e+00
      vertex   1.670000e+01 1.667000e+02 -3.000000e+00
    endloop
  endfacet
  facet normal 0.000000e+00 0.000000e+00 -1.000000e+00
    outer loop
      vertex   1.840000e+01 7.160000e+01 -3.000000e+00
      vertex   1.670000e+01 1.667000e+02 -3.000000e+00
      vertex   1.840000e+01 1.684000e+02 -3.000000e+00
    endloop
  endfacet
  facet normal 0.000000e+00 0.000000e+00 -1.000000e+00
    outer loop
      vertex   1.840000e+01 1.684000e+02 -3.000000e+00
      vertex   1.670000e+01 1.667000e+02 -3.000000e+00
      vertex   -1.670000e+01 1.667000e+02 -3.000000e+00
    endloop
  endfacet
  facet normal 1.000000e+00 0.000000e+00 0.000000e+00
    outer loop
      vertex   -1.670000e+01 1.667000e+02 -2.775558e-16
      vertex   -1.670000e+01 7.330000e+01 -2.775558e-16
      vertex   -1.670000e+01 1.667000e+02 -3.000000e+00
    endloop
  endfacet
  facet normal 1.000000e+00 0.000000e+00 0.000000e+00
    outer loop
      vertex   -1.670000e+01 1.667000e+02 -3.000000e+00
      vertex   -1.670000e+01 7.330000e+01 -2.775558e-16
      vertex   -1.670000e+01 7.330000e+01 -3.000000e+00
    endloop
  endfacet
  facet normal -0.000000e+00 1.000000e+00 0.000000e+00
    outer loop
      vertex   -1.670000e+01 7.330000e+01 -2.775558e-16
      vertex   1.670000e+01 7.330000e+01 -2.775558e-16
      vertex   -1.670000e+01 7.330000e+01 -3.000000e+00
    endloop
  endfacet
  facet normal 0.000000e+00 1.000000e+00 0.000000e+00
    outer loop
      vertex   -1.670000e+01 7.330000e+01 -3.000000e+00
      vertex   1.670000e+01 7.330000e+01 -2.775558e-16
      vertex   1.670000e+01 7.330000e+01 -3.000000e+00
    endloop
  endfacet
  facet normal -1.000000e+00 3.670159e-17 0.000000e+00
    outer loop
      vertex   -1.840000e+01 7.160000e+01 -2.775558e-16
      vertex   -1.840000e+01 1.684000e+02 -2.775558e-16
      vertex   -1.840000e+01 7.160000e+01 -3.000000e+00
    endloop
  endfacet
  facet normal -1.000000e+00 3.670159e-17 0.000000e+00
    outer loop
      vertex   -1.840000e+01 7.160000e+01 -3.000000e+00
      vertex   -1.840000e+01 1.684000e+02 -2.775558e-16
      vertex   -1.840000e+01 1.684000e+02 -3.000000e+00
    endloop
  endfacet
  facet normal -0.000000e+00 1.000000e+00 0.000000e+00
    outer loop
      vertex   -1.840000e+01 1.684000e+02 -2.775558e-16
      vertex   1.840000e+01 1.684000e+02 -2.775558e-16
      vertex   -1.840000e+01 1.684000e+02 -3.000000e+00
    endloop
  endfacet
  facet normal 0.000000e+00 1.000000e+00 0.000000e+00
    outer loop
      vertex   -1.840000e+01 1.684000e+02 -3.000000e+00
      vertex   1.840000e+01 1.684000e+02 -2.775558e-16
      vertex   1.840000e+01 1.684000e+02 -3.000000e+00
    endloop
  endfacet
  facet normal -1.000000e+00 0.000000e+00 0.000000e+00
    outer loop
      vertex   1.670000e+01 7.330000e+01 -2.775558e-16
      vertex   1.670000e+01 1.667000e+02 -2.775558e-16
      vertex   1.670000e+01 7.330000e+01 -3.000000e+00
    endloop
  endfacet
  facet normal -1.000000e+00 0.000000e+00 0.000000e+00
    outer loop
      vertex   1.670000e+01 7.330000e+01 -3.000000e+00
      vertex   1.670000e+01 1.667000e+02 -2.775558e-16
      vertex   1.670000e+01 1.667000e+02 -3.000000e+00
    endloop
  endfacet
  facet normal -0.000000e+00 -1.000000e+00 -0.000000e+00
    outer loop
      vertex   1.670000e+01 1.667000e+02 -2.775558e-16
      vertex   -1.670000e+01 1.667000e+02 -2.775558e-16
      vertex   1.670000e+01 1.667000e+02 -3.000000e+00
    endloop
  endfacet
  facet normal 0.000000e+00 -1.000000e+00 0.000000e+00
    outer loop
      vertex   1.670000e+01 1.667000e+02 -3.000000e+00
      vertex   -1.670000e+01 1.667000e+02 -2.775558e-16
      vertex   -1.670000e+01 1.667000e+02 -3.000000e+00
    endloop
  endfacet
  facet normal 1.000000e+00 -3.670159e-17 0.000000e+00
    outer loop
      vertex   1.840000e+01 1.684000e+02 -2.775558e-16
      vertex   1.840000e+01 7.160000e+01 -2.775558e-16
      vertex   1.840000e+01 1.684000e+02 -3.000000e+00
    endloop
  endfacet
  facet normal 1.000000e+00 -3.670159e-17 0.000000e+00
    outer loop
      vertex   1.840000e+01 1.684000e+02 -3.000000e+00
      vertex   1.840000e+01 7.160000e+01 -2.775558e-16
      vertex   1.840000e+01 7.160000e+01 -3.000000e+00
    endloop
  endfacet
  facet normal -0.000000e+00 -1.000000e+00 -0.000000e+00
    outer loop
      vertex   1.840000e+01 7.160000e+01 -2.775558e-16
      vertex   -1.840000e+01 7.160000e+01 -2.775558e-16
      vertex   1.840000e+01 7.160000e+01 -3.000000e+00
    endloop
  endfacet
  facet normal 0.000000e+00 -1.000000e+00 0.000000e+00
    outer loop
      vertex   1.840000e+01 7.160000e+01 -3.000000e+00
      vertex   -1.840000e+01 7.160000e+01 -2.775558e-16
      vertex   -1.840000e+01 7.160000e+01 -3.000000e+00
    endloop
  endfacet
  facet normal 0.000000e+00 0.000000e+00 -1.000000e+00
    outer loop
      vertex   -2.000000e+01 7.000000e+01 -2.775558e-16
      vertex   -2.000000e+01 1.700000e+02 -2.775558e-16
      vertex   -1.840000e+01 1.684000e+02 -2.775558e-16
    endloop
  endfacet
  facet normal 0.000000e+00 0.000000e+00 -1.000000e+00
    outer loop
      vertex   -1.840000e+01 1.684000e+02 -2.775558e-16
      vertex   -2.000000e+01 1.700000e+02 -2.775558e-16
      vertex   -4.253908e+00 1.700000e+02 -2.775558e-16
    endloop
  endfacet
  facet normal 0.000000e+00 0.000000e+00 -1.000000e+00
    outer loop
      vertex   -1.840000e+01 1.684000e+02 -2.775558e-16
      vertex   -4.253908e+00 1.700000e+02 -2.775558e-16
      vertex   4.253908e+00 1.700000e+02 -2.775558e-16
    endloop
  endfacet
  facet normal 0.000000e+00 0.000000e+00 -1.000000e+00
    outer loop
      vertex   4.253908e+00 1.700000e+02 -2.775558e-16
      vertex   -4.253908e+00 1.700000e+02 -2.775558e-16
      vertex   4.253908e+00 1.718000e+02 -2.775558e-16
    endloop
  endfacet
  facet normal -0.000000e+00 0.000000e+00 -1.000000e+00
    outer loop
      vertex   4.253908e+00 1.718000e+02 -2.775558e-16
      vertex   -4.253908e+00 1.700000e+02 -2.775558e-16
      vertex   -4.253908e+00 1.718000e+02 -2.775558e-16
    endloop
  endfacet
  facet normal 0.000000e+00 0.000000e+00 -1.000000e+00
    outer loop
      vertex   4.253908e+00 1.718000e+02 -2.775558e-16
      vertex   -4.253908e+00 1.718000e+02 -2.775558e-16
      vertex   4.446544e-01 1.760306e+02 -2.775558e-16
    endloop
  endfacet
  facet normal -0.000000e+00 0.000000e+00 -1.000000e+00
    outer loop
      vertex   4.446544e-01 1.760306e+02 -2.775558e-16
      vertex   -4.253908e+00 1.718000e+02 -2.775558e-16
      vertex   2.604767e-16 1.760539e+02 -2.775558e-16
    endloop
  endfacet
  facet normal 0.000000e+00 0.000000e+00 -1.000000e+00
    outer loop
      vertex   2.604767e-16 1.760539e+02 -2.775558e-16
      vertex   -4.253908e+00 1.718000e+02 -2.775558e-16
      vertex   -4.446544e-01 1.760306e+02 -2.775558e-16
    endloop
  endfacet
  facet normal 0.000000e+00 0.000000e+00 -1.000000e+00
    outer loop
      vertex   -4.446544e-01 1.760306e+02 -2.775558e-16
      vertex   -4.253908e+00 1.718000e+02 -2.775558e-16
      vertex   -8.844372e-01 1.759609e+02 -2.775558e-16
    endloop
  endfacet
  facet normal 0.000000e+00 0.000000e+00 -1.000000e+00
    outer loop
      vertex   -8.844372e-01 1.759609e+02 -2.775558e-16
      vertex   -4.253908e+00 1.718000e+02 -2.775558e-16
      vertex   -1.314530e+00 1.758457e+02 -2.775558e-16
    endloop
  endfacet
  facet normal 0.000000e+00 0.000000e+00 -1.000000e+00
    outer loop
      vertex   -1.314530e+00 1.758457e+02 -2.775558e-16
      vertex   -4.253908e+00 1.718000e+02 -2.775558e-16
      vertex   -1.730220e+00 1.756861e+02 -2.775558e-16
    endloop
  endfacet
  facet normal 0.000000e+00 0.000000e+00 -1.000000e+00
    outer loop
      vertex   -1.730220e+00 1.756861e+02 -2.775558e-16
      vertex   -4.253908e+00 1.718000e+02 -2.775558e-16
      vertex   -2.126954e+00 1.754840e+02 -2.775558e-16
    endloop
  endfacet
  facet normal 0.000000e+00 0.000000e+00 -1.000000e+00
    outer loop
      vertex   -2.126954e+00 1.754840e+02 -2.775558e-16
      vertex   -4.253908e+00 1.718000e+02 -2.775558e-16
      vertex   -2.500384e+00 1.752415e+02 -2.775558e-16
    endloop
  endfacet
  facet normal 0.000000e+00 0.000000e+00 -1.000000e+00
    outer loop
      vertex   -2.500384e+00 1.752415e+02 -2.775558e-16
      vertex   -4.253908e+00 1.718000e+02 -2.775558e-16
      vertex   -2.846420e+00 1.749613e+02 -2.775558e-16
    endloop
  endfacet
  facet normal 0.000000e+00 0.000000e+00 -1.000000e+00
    outer loop
      vertex   -2.846420e+00 1.749613e+02 -2.775558e-16
      vertex   -4.253908e+00 1.718000e+02 -2.775558e-16
      vertex   -3.161270e+00 1.746464e+02 -2.775558e-16
    endloop
  endfacet
  facet normal 0.000000e+00 0.000000e+00 -1.000000e+00
    outer loop
      vertex   -3.161270e+00 1.746464e+02 -2.775558e-16
      vertex   -4.253908e+00 1.718000e+02 -2.775558e-16
      vertex   -3.441484e+00 1.743004e+02 -2.775558e-16
    endloop
  endfacet
  facet normal 0.000000e+00 0.000000e+00 -1.000000e+00
    outer loop
      vertex   -3.441484e+00 1.743004e+02 -2.775558e-16
      vertex   -4.253908e+00 1.718000e+02 -2.775558e-16
      vertex   -3.683992e+00 1.739270e+02 -2.775558e-16
    endloop
  endfacet
  facet normal 0.000000e+00 0.000000e+00 -1.000000e+00
    outer loop
      vertex   -3.683992e+00 1.739270e+02 -2.775558e-16
      vertex   -4.253908e+00 1.718000e+02 -2.775558e-16
      vertex   -3.886138e+00 1.735302e+02 -2.775558e-16
    endloop
  endfacet
  facet normal 0.000000e+00 0.000000e+00 -1.000000e+00
    outer loop
      vertex   -3.886138e+00 1.735302e+02 -2.775558e-16
      vertex   -4.253908e+00 1.718000e+02 -2.775558e-16
      vertex   -4.045707e+00 1.731145e+02 -2.775558e-16
    endloop
  endfacet
  facet normal 0.000000e+00 0.000000e+00 -1.000000e+00
    outer loop
      vertex   -4.045707e+00 1.731145e+02 -2.775558e-16
      vertex   -4.253908e+00 1.718000e+02 -2.775558e-16
      vertex   -4.160950e+00 1.726844e+02 -2.775558e-16
    endloop
  endfacet
  facet normal 0.000000e+00 0.000000e+00 -1.000000e+00
    outer loop
      vertex   -4.160950e+00 1.726844e+02 -2.775558e-16
      vertex   -4.253908e+00 1.718000e+02 -2.775558e-16
      vertex   -4.230604e+00 1.722447e+02 -2.775558e-16
    endloop
  endfacet
  facet normal 0.000000e+00 0.000000e+00 -1.000000e+00
    outer loop
      vertex   4.446544e-01 1.760306e+02 -2.775558e-16
      vertex   8.844372e-01 1.759609e+02 -2.775558e-16
      vertex   4.253908e+00 1.718000e+02 -2.775558e-16
    endloop
  endfacet
  facet normal 0.000000e+00 0.000000e+00 -1.000000e+00
    outer loop
      vertex   4.253908e+00 1.718000e+02 -2.775558e-16
      vertex   8.844372e-01 1.759609e+02 -2.775558e-16
      vertex   1.314530e+00 1.758457e+02 -2.775558e-16
    endloop
  endfacet
  facet normal 0.000000e+00 0.000000e+00 -1.000000e+00
    outer loop
      vertex   4.253908e+00 1.718000e+02 -2.775558e-16
      vertex   1.314530e+00 1.758457e+02 -2.775558e-16
      vertex   1.730220e+00 1.756861e+02 -2.775558e-16
    endloop
  endfacet
  facet normal 0.000000e+00 0.000000e+00 -1.000000e+00
    outer loop
      vertex   4.253908e+00 1.718000e+02 -2.775558e-16
      vertex   1.730220e+00 1.756861e+02 -2.775558e-16
      vertex   4.230604e+00 1.722447e+02 -2.775558e-16
    endloop
  endfacet
  facet normal 0.000000e+00 0.000000e+00 -1.000000e+00
    outer loop
      vertex   4.230604e+00 1.722447e+02 -2.775558e-16
      vertex   1.730220e+00 1.756861e+02 -2.775558e-16
      vertex   2.126954e+00 1.754840e+02 -2.775558e-16
    endloop
  endfacet
  facet normal 0.000000e+00 0.000000e+00 -1.000000e+00
    outer loop
      vertex   4.230604e+00 1.722447e+02 -2.775558e-16
      vertex   2.126954e+00 1.754840e+02 -2.775558e-16
      vertex   2.500384e+00 1.752415e+02 -2.775558e-16
    endloop
  endfacet
  facet normal 0.000000e+00 0.000000e+00 -1.000000e+00
    outer loop
      vertex   2.500384e+00 1.752415e+02 -2.775558e-16
      vertex   2.846420e+00 1.749613e+02 -2.775558e-16
      vertex   4.230604e+00 1.722447e+02 -2.775558e-16
    endloop
  endfacet
  facet normal 0.000000e+00 0.000000e+00 -1.000000e+00
    outer loop
      vertex   4.230604e+00 1.722447e+02 -2.775558e-16
      vertex   2.846420e+00 1.749613e+02 -2.775558e-16
      vertex   3.161270e+00 1.746464e+02 -2.775558e-16
    endloop
  endfacet
  facet normal 0.000000e+00 0.000000e+00 -1.000000e+00
    outer loop
      vertex   4.230604e+00 1.722447e+02 -2.775558e-16
      vertex   3.161270e+00 1.746464e+02 -2.775558e-16
      vertex   3.441484e+00 1.743004e+02 -2.775558e-16
    endloop
  endfacet
  facet normal 0.000000e+00 0.000000e+00 -1.000000e+00
    outer loop
      vertex   3.441484e+00 1.743004e+02 -2.775558e-16
      vertex   3.683992e+00 1.739270e+02 -2.775558e-16
      vertex   4.230604e+00 1.722447e+02 -2.775558e-16
    endloop
  endfacet
  facet normal 0.000000e+00 0.000000e+00 -1.000000e+00
    outer loop
      vertex   4.230604e+00 1.722447e+02 -2.775558e-16
      vertex   3.683992e+00 1.739270e+02 -2.775558e-16
      vertex   3.886138e+00 1.735302e+02 -2.775558e-16
    endloop
  endfacet
  facet normal 0.000000e+00 0.000000e+00 -1.000000e+00
    outer loop
      vertex   4.230604e+00 1.722447e+02 -2.775558e-16
      vertex   3.886138e+00 1.735302e+02 -2.775558e-16
      vertex   4.045707e+00 1.731145e+02 -2.775558e-16
    endloop
  endfacet
  facet normal 0.000000e+00 0.000000e+00 -1.000000e+00
    outer loop
      vertex   4.045707e+00 1.731145e+02 -2.775558e-16
      vertex   4.160950e+00 1.726844e+02 -2.775558e-16
      vertex   4.230604e+00 1.722447e+02 -2.775558e-16
    endloop
  endfacet
  facet normal 0.000000e+00 -0.000000e+00 -1.000000e+00
    outer loop
      vertex   4.253908e+00 1.700000e+02 -2.775558e-16
      vertex   2.000000e+01 1.700000e+02 -2.775558e-16
      vertex   -1.840000e+01 1.684000e+02 -2.775558e-16
    endloop
  endfacet
  facet normal 0.000000e+00 0.000000e+00 -1.000000e+00
    outer loop
      vertex   -1.840000e+01 1.684000e+02 -2.775558e-16
      vertex   2.000000e+01 1.700000e+02 -2.775558e-16
      vertex   1.840000e+01 1.684000e+02 -2.775558e-16
    endloop
  endfacet
  facet normal 0.000000e+00 0.000000e+00 -1.000000e+00
    outer loop
      vertex   1.840000e+01 1.684000e+02 -2.775558e-16
      vertex   2.000000e+01 1.700000e+02 -2.775558e-16
      vertex   2.000000e+01 7.000000e+01 -2.775558e-16
    endloop
  endfacet
  facet normal 0.000000e+00 -0.000000e+00 -1.000000e+00
    outer loop
      vertex   1.840000e+01 1.684000e+02 -2.775558e-16
      vertex   2.000000e+01 7.000000e+01 -2.775558e-16
      vertex   1.840000e+01 7.160000e+01 -2.775558e-16
    endloop
  endfacet
  facet normal 0.000000e+00 -0.000000e+00 -1.000000e+00
    outer loop
      vertex   1.840000e+01 7.160000e+01 -2.775558e-16
      vertex   2.000000e+01 7.000000e+01 -2.775558e-16
      vertex   4.253908e+00 7.000000e+01 -2.775558e-16
    endloop
  endfacet
  facet normal 0.000000e+00 0.000000e+00 -1.000000e+00
    outer loop
      vertex   1.840000e+01 7.160000e+01 -2.775558e-16
      vertex   4.253908e+00 7.000000e+01 -2.775558e-16
      vertex   -4.253908e+00 7.000000e+01 -2.775558e-16
    endloop
  endfacet
  facet normal 0.000000e+00 0.000000e+00 -1.000000e+00
    outer loop
      vertex   -4.253908e+00 7.000000e+01 -2.775558e-16
      vertex   4.253908e+00 7.000000e+01 -2.775558e-16
      vertex   1.987658e-16 6.394609e+01 -2.775558e-16
    endloop
  endfacet
  facet normal 0.000000e+00 0.000000e+00 -1.000000e+00
    outer loop
      vertex   -4.253908e+00 7.000000e+01 -2.775558e-16
      vertex   1.987658e-16 6.394609e+01 -2.775558e-16
      vertex   -4.446544e-01 6.396940e+01 -2.775558e-16
    endloop
  endfacet
  facet normal -0.000000e+00 0.000000e+00 -1.000000e+00
    outer loop
      vertex   4.253908e+00 6.820000e+01 -2.775558e-16
      vertex   3.886138e+00 6.646978e+01 -2.775558e-16
      vertex   4.253908e+00 7.000000e+01 -2.775558e-16
    endloop
  endfacet
  facet normal 0.000000e+00 0.000000e+00 -1.000000e+00
    outer loop
      vertex   4.253908e+00 7.000000e+01 -2.775558e-16
      vertex   3.886138e+00 6.646978e+01 -2.775558e-16
      vertex   3.683992e+00 6.607305e+01 -2.775558e-16
    endloop
  endfacet
  facet normal 0.000000e+00 0.000000e+00 -1.000000e+00
    outer loop
      vertex   4.253908e+00 7.000000e+01 -2.775558e-16
      vertex   3.683992e+00 6.607305e+01 -2.775558e-16
      vertex   3.441484e+00 6.569962e+01 -2.775558e-16
    endloop
  endfacet
  facet normal -0.000000e+00 0.000000e+00 -1.000000e+00
    outer loop
      vertex   4.230604e+00 6.775535e+01 -2.775558e-16
      vertex   4.160950e+00 6.731556e+01 -2.775558e-16
      vertex   4.253908e+00 6.820000e+01 -2.775558e-16
    endloop
  endfacet
  facet normal 0.000000e+00 0.000000e+00 -1.000000e+00
    outer loop
      vertex   4.253908e+00 6.820000e+01 -2.775558e-16
      vertex   4.160950e+00 6.731556e+01 -2.775558e-16
      vertex   4.045707e+00 6.688547e+01 -2.775558e-16
    endloop
  endfacet
  facet normal 0.000000e+00 0.000000e+00 -1.000000e+00
    outer loop
      vertex   4.253908e+00 6.820000e+01 -2.775558e-16
      vertex   4.045707e+00 6.688547e+01 -2.775558e-16
      vertex   3.886138e+00 6.646978e+01 -2.775558e-16
    endloop
  endfacet
  facet normal -0.000000e+00 0.000000e+00 -1.000000e+00
    outer loop
      vertex   3.441484e+00 6.569962e+01 -2.775558e-16
      vertex   3.161270e+00 6.535358e+01 -2.775558e-16
      vertex   4.253908e+00 7.000000e+01 -2.775558e-16
    endloop
  endfacet
  facet normal 0.000000e+00 0.000000e+00 -1.000000e+00
    outer loop
      vertex   4.253908e+00 7.000000e+01 -2.775558e-16
      vertex   3.161270e+00 6.535358e+01 -2.775558e-16
      vertex   2.846420e+00 6.503873e+01 -2.775558e-16
    endloop
  endfacet
  facet normal 0.000000e+00 0.000000e+00 -1.000000e+00
    outer loop
      vertex   4.253908e+00 7.000000e+01 -2.775558e-16
      vertex   2.846420e+00 6.503873e+01 -2.775558e-16
      vertex   2.500384e+00 6.475852e+01 -2.775558e-16
    endloop
  endfacet
  facet normal -0.000000e+00 0.000000e+00 -1.000000e+00
    outer loop
      vertex   2.500384e+00 6.475852e+01 -2.775558e-16
      vertex   2.126954e+00 6.451601e+01 -2.775558e-16
      vertex   4.253908e+00 7.000000e+01 -2.775558e-16
    endloop
  endfacet
  facet normal 0.000000e+00 0.000000e+00 -1.000000e+00
    outer loop
      vertex   4.253908e+00 7.000000e+01 -2.775558e-16
      vertex   2.126954e+00 6.451601e+01 -2.775558e-16
      vertex   1.730220e+00 6.431386e+01 -2.775558e-16
    endloop
  endfacet
  facet normal 0.000000e+00 0.000000e+00 -1.000000e+00
    outer loop
      vertex   4.253908e+00 7.000000e+01 -2.775558e-16
      vertex   1.730220e+00 6.431386e+01 -2.775558e-16
      vertex   1.314530e+00 6.415429e+01 -2.775558e-16
    endloop
  endfacet
  facet normal -0.000000e+00 0.000000e+00 -1.000000e+00
    outer loop
      vertex   1.314530e+00 6.415429e+01 -2.775558e-16
      vertex   8.844372e-01 6.403905e+01 -2.775558e-16
      vertex   4.253908e+00 7.000000e+01 -2.775558e-16
    endloop
  endfacet
  facet normal 0.000000e+00 0.000000e+00 -1.000000e+00
    outer loop
      vertex   4.253908e+00 7.000000e+01 -2.775558e-16
      vertex   8.844372e-01 6.403905e+01 -2.775558e-16
      vertex   4.446544e-01 6.396940e+01 -2.775558e-16
    endloop
  endfacet
  facet normal 0.000000e+00 0.000000e+00 -1.000000e+00
    outer loop
      vertex   4.253908e+00 7.000000e+01 -2.775558e-16
      vertex   4.446544e-01 6.396940e+01 -2.775558e-16
      vertex   1.987658e-16 6.394609e+01 -2.775558e-16
    endloop
  endfacet
  facet normal 0.000000e+00 0.000000e+00 -1.000000e+00
    outer loop
      vertex   -4.446544e-01 6.396940e+01 -2.775558e-16
      vertex   -8.844372e-01 6.403905e+01 -2.775558e-16
      vertex   -4.253908e+00 7.000000e+01 -2.775558e-16
    endloop
  endfacet
  facet normal 0.000000e+00 0.000000e+00 -1.000000e+00
    outer loop
      vertex   -4.253908e+00 7.000000e+01 -2.775558e-16
      vertex   -8.844372e-01 6.403905e+01 -2.775558e-16
      vertex   -1.314530e+00 6.415429e+01 -2.775558e-16
    endloop
  endfacet
  facet normal 0.000000e+00 0.000000e+00 -1.000000e+00
    outer loop
      vertex   -4.253908e+00 7.000000e+01 -2.775558e-16
      vertex   -1.314530e+00 6.415429e+01 -2.775558e-16
      vertex   -1.730220e+00 6.431386e+01 -2.775558e-16
    endloop
  endfacet
  facet normal 0.000000e+00 0.000000e+00 -1.000000e+00
    outer loop
      vertex   -1.730220e+00 6.431386e+01 -2.775558e-16
      vertex   -2.126954e+00 6.451601e+01 -2.775558e-16
      vertex   -4.253908e+00 7.000000e+01 -2.775558e-16
    endloop
  endfacet
  facet normal 0.000000e+00 0.000000e+00 -1.000000e+00
    outer loop
      vertex   -4.253908e+00 7.000000e+01 -2.775558e-16
      vertex   -2.126954e+00 6.451601e+01 -2.775558e-16
      vertex   -2.500384e+00 6.475852e+01 -2.775558e-16
    endloop
  endfacet
  facet normal 0.000000e+00 0.000000e+00 -1.000000e+00
    outer loop
      vertex   -4.253908e+00 7.000000e+01 -2.775558e-16
      vertex   -2.500384e+00 6.475852e+01 -2.775558e-16
      vertex   -2.846420e+00 6.503873e+01 -2.775558e-16
    endloop
  endfacet
  facet normal 0.000000e+00 0.000000e+00 -1.000000e+00
    outer loop
      vertex   -2.846420e+00 6.503873e+01 -2.775558e-16
      vertex   -3.161270e+00 6.535358e+01 -2.775558e-16
      vertex   -4.253908e+00 7.000000e+01 -2.775558e-16
    endloop
  endfacet
  facet normal 0.000000e+00 0.000000e+00 -1.000000e+00
    outer loop
      vertex   -4.253908e+00 7.000000e+01 -2.775558e-16
      vertex   -3.161270e+00 6.535358e+01 -2.775558e-16
      vertex   -3.441484e+00 6.569962e+01 -2.775558e-16
    endloop
  endfacet
  facet normal 0.000000e+00 0.000000e+00 -1.000000e+00
    outer loop
      vertex   -4.253908e+00 7.000000e+01 -2.775558e-16
      vertex   -3.441484e+00 6.569962e+01 -2.775558e-16
      vertex   -3.683992e+00 6.607305e+01 -2.775558e-16
    endloop
  endfacet
  facet normal 0.000000e+00 0.000000e+00 -1.000000e+00
    outer loop
      vertex   -3.683992e+00 6.607305e+01 -2.775558e-16
      vertex   -3.886138e+00 6.646978e+01 -2.775558e-16
      vertex   -4.253908e+00 7.000000e+01 -2.775558e-16
    endloop
  endfacet
  facet normal 0.000000e+00 0.000000e+00 -1.000000e+00
    outer loop
      vertex   -4.253908e+00 7.000000e+01 -2.775558e-16
      vertex   -3.886138e+00 6.646978e+01 -2.775558e-16
      vertex   -4.253908e+00 6.820000e+01 -2.775558e-16
    endloop
  endfacet
  facet normal 0.000000e+00 0.000000e+00 -1.000000e+00
    outer loop
      vertex   -4.253908e+00 6.820000e+01 -2.775558e-16
      vertex   -3.886138e+00 6.646978e+01 -2.775558e-16
      vertex   -4.045707e+00 6.688547e+01 -2.775558e-16
    endloop
  endfacet
  facet normal 0.000000e+00 0.000000e+00 -1.000000e+00
    outer loop
      vertex   -4.253908e+00 6.820000e+01 -2.775558e-16
      vertex   -4.045707e+00 6.688547e+01 -2.775558e-16
      vertex   -4.160950e+00 6.731556e+01 -2.775558e-16
    endloop
  endfacet
  facet normal 0.000000e+00 0.000000e+00 -1.000000e+00
    outer loop
      vertex   -4.160950e+00 6.731556e+01 -2.775558e-16
      vertex   -4.230604e+00 6.775535e+01 -2.775558e-16
      vertex   -4.253908e+00 6.820000e+01 -2.775558e-16
    endloop
  endfacet
  facet normal -0.000000e+00 0.000000e+00 -1.000000e+00
    outer loop
      vertex   1.840000e+01 7.160000e+01 -2.775558e-16
      vertex   -4.253908e+00 7.000000e+01 -2.775558e-16
      vertex   -1.840000e+01 7.160000e+01 -2.775558e-16
    endloop
  endfacet
  facet normal 0.000000e+00 -0.000000e+00 -1.000000e+00
    outer loop
      vertex   -1.840000e+01 7.160000e+01 -2.775558e-16
      vertex   -4.253908e+00 7.000000e+01 -2.775558e-16
      vertex   -2.000000e+01 7.000000e+01 -2.775558e-16
    endloop
  endfacet
  facet normal -0.000000e+00 0.000000e+00 -1.000000e+00
    outer loop
      vertex   -1.840000e+01 7.160000e+01 -2.775558e-16
      vertex   -2.000000e+01 7.000000e+01 -2.775558e-16
      vertex   -1.840000e+01 1.684000e+02 -2.775558e-16
    endloop
  endfacet
  facet normal -1.000000e+00 0.000000e+00 0.000000e+00
    outer loop
      vertex   -2.000000e+01 7.000000e+01 1.600000e+00
      vertex   -2.000000e+01 1.700000e+02 1.600000e+00
      vertex   -2.000000e+01 7.000000e+01 -2.775558e-16
    endloop
  endfacet
  facet normal -1.000000e+00 0.000000e+00 0.000000e+00
    outer loop
      vertex   -2.000000e+01 7.000000e+01 -2.775558e-16
      vertex   -2.000000e+01 1.700000e+02 1.600000e+00
      vertex   -2.000000e+01 1.700000e+02 -2.775558e-16
    endloop
  endfacet
  facet normal 1.000000e+00 0.000000e+00 0.000000e+00
    outer loop
      vertex   2.000000e+01 1.700000e+02 1.600000e+00
      vertex   2.000000e+01 7.000000e+01 1.600000e+00
      vertex   2.000000e+01 1.700000e+02 -2.775558e-16
    endloop
  endfacet
  facet normal 1.000000e+00 0.000000e+00 0.000000e+00
    outer loop
      vertex   2.000000e+01 1.700000e+02 -2.775558e-16
      vertex   2.000000e+01 7.000000e+01 1.600000e+00
      vertex   2.000000e+01 7.000000e+01 -2.775558e-16
    endloop
  endfacet
  facet normal 0.000000e+00 0.000000e+00 -1.000000e+00
    outer loop
      vertex   -1.670000e+01 1.667000e+02 -2.775558e-16
      vertex   1.670000e+01 1.667000e+02 -2.775558e-16
      vertex   -1.670000e+01 7.330000e+01 -2.775558e-16
    endloop
  endfacet
  facet normal 0.000000e+00 0.000000e+00 -1.000000e+00
    outer loop
      vertex   -1.670000e+01 7.330000e+01 -2.775558e-16
      vertex   1.670000e+01 1.667000e+02 -2.775558e-16
      vertex   1.670000e+01 7.330000e+01 -2.775558e-16
    endloop
  endfacet
  facet normal 0.000000e+00 0.000000e+00 1.000000e+00
    outer loop
      vertex   2.000000e+01 1.700000e+02 1.600000e+00
      vertex   5.000000e+00 1.700000e+02 1.600000e+00
      vertex   2.000000e+01 7.000000e+01 1.600000e+00
    endloop
  endfacet
  facet normal 0.000000e+00 0.000000e+00 1.000000e+00
    outer loop
      vertex   2.000000e+01 7.000000e+01 1.600000e+00
      vertex   5.000000e+00 1.700000e+02 1.600000e+00
      vertex   -5.000000e+00 1.700000e+02 1.600000e+00
    endloop
  endfacet
  facet normal 0.000000e+00 0.000000e+00 1.000000e+00
    outer loop
      vertex   2.000000e+01 7.000000e+01 1.600000e+00
      vertex   -5.000000e+00 1.700000e+02 1.600000e+00
      vertex   -2.000000e+01 1.700000e+02 1.600000e+00
    endloop
  endfacet
  facet normal 0.000000e+00 0.000000e+00 1.000000e+00
    outer loop
      vertex   5.000000e+00 1.718000e+02 1.600000e+00
      vertex   4.975924e+00 1.722901e+02 1.600000e+00
      vertex   5.000000e+00 1.700000e+02 1.600000e+00
    endloop
  endfacet
  facet normal 0.000000e+00 0.000000e+00 1.000000e+00
    outer loop
      vertex   5.000000e+00 1.700000e+02 1.600000e+00
      vertex   4.975924e+00 1.722901e+02 1.600000e+00
      vertex   -4.975924e+00 1.722901e+02 1.600000e+00
    endloop
  endfacet
  facet normal 0.000000e+00 0.000000e+00 1.000000e+00
    outer loop
      vertex   5.000000e+00 1.700000e+02 1.600000e+00
      vertex   -4.975924e+00 1.722901e+02 1.600000e+00
      vertex   -5.000000e+00 1.700000e+02 1.600000e+00
    endloop
  endfacet
  facet normal 0.000000e+00 0.000000e+00 1.000000e+00
    outer loop
      vertex   -5.000000e+00 1.700000e+02 1.600000e+00
      vertex   -4.975924e+00 1.722901e+02 1.600000e+00
      vertex   -5.000000e+00 1.718000e+02 1.600000e+00
    endloop
  endfacet
  facet normal 0.000000e+00 0.000000e+00 1.000000e+00
    outer loop
      vertex   -4.975924e+00 1.722901e+02 1.600000e+00
      vertex   4.975924e+00 1.722901e+02 1.600000e+00
      vertex   -4.903926e+00 1.727755e+02 1.600000e+00
    endloop
  endfacet
  facet normal -0.000000e+00 0.000000e+00 1.000000e+00
    outer loop
      vertex   -4.903926e+00 1.727755e+02 1.600000e+00
      vertex   4.975924e+00 1.722901e+02 1.600000e+00
      vertex   4.903926e+00 1.727755e+02 1.600000e+00
    endloop
  endfacet
  facet normal 0.000000e+00 0.000000e+00 1.000000e+00
    outer loop
      vertex   -4.903926e+00 1.727755e+02 1.600000e+00
      vertex   4.903926e+00 1.727755e+02 1.600000e+00
      vertex   -4.784702e+00 1.732514e+02 1.600000e+00
    endloop
  endfacet
  facet normal -0.000000e+00 0.000000e+00 1.000000e+00
    outer loop
      vertex   -4.784702e+00 1.732514e+02 1.600000e+00
      vertex   4.903926e+00 1.727755e+02 1.600000e+00
      vertex   4.784702e+00 1.732514e+02 1.600000e+00
    endloop
  endfacet
  facet normal 0.000000e+00 0.000000e+00 1.000000e+00
    outer loop
      vertex   -4.784702e+00 1.732514e+02 1.600000e+00
      vertex   4.784702e+00 1.732514e+02 1.600000e+00
      vertex   -4.619398e+00 1.737134e+02 1.600000e+00
    endloop
  endfacet
  facet normal -0.000000e+00 0.000000e+00 1.000000e+00
    outer loop
      vertex   -4.619398e+00 1.737134e+02 1.600000e+00
      vertex   4.784702e+00 1.732514e+02 1.600000e+00
      vertex   4.619398e+00 1.737134e+02 1.600000e+00
    endloop
  endfacet
  facet normal 0.000000e+00 0.000000e+00 1.000000e+00
    outer loop
      vertex   -4.619398e+00 1.737134e+02 1.600000e+00
      vertex   4.619398e+00 1.737134e+02 1.600000e+00
      vertex   -4.409606e+00 1.741570e+02 1.600000e+00
    endloop
  endfacet
  facet normal -0.000000e+00 0.000000e+00 1.000000e+00
    outer loop
      vertex   -4.409606e+00 1.741570e+02 1.600000e+00
      vertex   4.619398e+00 1.737134e+02 1.600000e+00
      vertex   4.409606e+00 1.741570e+02 1.600000e+00
    endloop
  endfacet
  facet normal 0.000000e+00 0.000000e+00 1.000000e+00
    outer loop
      vertex   -4.409606e+00 1.741570e+02 1.600000e+00
      vertex   4.409606e+00 1.741570e+02 1.600000e+00
      vertex   -4.157348e+00 1.745779e+02 1.600000e+00
    endloop
  endfacet
  facet normal -0.000000e+00 0.000000e+00 1.000000e+00
    outer loop
      vertex   -4.157348e+00 1.745779e+02 1.600000e+00
      vertex   4.409606e+00 1.741570e+02 1.600000e+00
      vertex   4.157348e+00 1.745779e+02 1.600000e+00
    endloop
  endfacet
  facet normal 0.000000e+00 0.000000e+00 1.000000e+00
    outer loop
      vertex   -4.157348e+00 1.745779e+02 1.600000e+00
      vertex   4.157348e+00 1.745779e+02 1.600000e+00
      vertex   -3.865052e+00 1.749720e+02 1.600000e+00
    endloop
  endfacet
  facet normal -0.000000e+00 0.000000e+00 1.000000e+00
    outer loop
      vertex   -3.865052e+00 1.749720e+02 1.600000e+00
      vertex   4.157348e+00 1.745779e+02 1.600000e+00
      vertex   3.865052e+00 1.749720e+02 1.600000e+00
    endloop
  endfacet
  facet normal 0.000000e+00 0.000000e+00 1.000000e+00
    outer loop
      vertex   -3.865052e+00 1.749720e+02 1.600000e+00
      vertex   3.865052e+00 1.749720e+02 1.600000e+00
      vertex   -3.535534e+00 1.753355e+02 1.600000e+00
    endloop
  endfacet
  facet normal -0.000000e+00 0.000000e+00 1.000000e+00
    outer loop
      vertex   -3.535534e+00 1.753355e+02 1.600000e+00
      vertex   3.865052e+00 1.749720e+02 1.600000e+00
      vertex   3.535534e+00 1.753355e+02 1.600000e+00
    endloop
  endfacet
  facet normal 0.000000e+00 0.000000e+00 1.000000e+00
    outer loop
      vertex   -3.535534e+00 1.753355e+02 1.600000e+00
      vertex   3.535534e+00 1.753355e+02 1.600000e+00
      vertex   -3.171966e+00 1.756651e+02 1.600000e+00
    endloop
  endfacet
  facet normal -0.000000e+00 0.000000e+00 1.000000e+00
    outer loop
      vertex   -3.171966e+00 1.756651e+02 1.600000e+00
      vertex   3.535534e+00 1.753355e+02 1.600000e+00
      vertex   3.171966e+00 1.756651e+02 1.600000e+00
    endloop
  endfacet
  facet normal 0.000000e+00 0.000000e+00 1.000000e+00
    outer loop
      vertex   -3.171966e+00 1.756651e+02 1.600000e+00
      vertex   3.171966e+00 1.756651e+02 1.600000e+00
      vertex   -2.777851e+00 1.759573e+02 1.600000e+00
    endloop
  endfacet
  facet normal -0.000000e+00 0.000000e+00 1.000000e+00
    outer loop
      vertex   -2.777851e+00 1.759573e+02 1.600000e+00
      vertex   3.171966e+00 1.756651e+02 1.600000e+00
      vertex   2.777851e+00 1.759573e+02 1.600000e+00
    endloop
  endfacet
  facet normal 0.000000e+00 0.000000e+00 1.000000e+00
    outer loop
      vertex   -2.777851e+00 1.759573e+02 1.600000e+00
      vertex   2.777851e+00 1.759573e+02 1.600000e+00
      vertex   -2.356984e+00 1.762096e+02 1.600000e+00
    endloop
  endfacet
  facet normal -0.000000e+00 0.000000e+00 1.000000e+00
    outer loop
      vertex   -2.356984e+00 1.762096e+02 1.600000e+00
      vertex   2.777851e+00 1.759573e+02 1.600000e+00
      vertex   2.356984e+00 1.762096e+02 1.600000e+00
    endloop
  endfacet
  facet normal 0.000000e+00 0.000000e+00 1.000000e+00
    outer loop
      vertex   -2.356984e+00 1.762096e+02 1.600000e+00
      vertex   2.356984e+00 1.762096e+02 1.600000e+00
      vertex   -1.913417e+00 1.764194e+02 1.600000e+00
    endloop
  endfacet
  facet normal -0.000000e+00 0.000000e+00 1.000000e+00
    outer loop
      vertex   -1.913417e+00 1.764194e+02 1.600000e+00
      vertex   2.356984e+00 1.762096e+02 1.600000e+00
      vertex   1.913417e+00 1.764194e+02 1.600000e+00
    endloop
  endfacet
  facet normal 0.000000e+00 0.000000e+00 1.000000e+00
    outer loop
      vertex   -1.913417e+00 1.764194e+02 1.600000e+00
      vertex   1.913417e+00 1.764194e+02 1.600000e+00
      vertex   -1.451423e+00 1.765847e+02 1.600000e+00
    endloop
  endfacet
  facet normal -0.000000e+00 0.000000e+00 1.000000e+00
    outer loop
      vertex   -1.451423e+00 1.765847e+02 1.600000e+00
      vertex   1.913417e+00 1.764194e+02 1.600000e+00
      vertex   1.451423e+00 1.765847e+02 1.600000e+00
    endloop
  endfacet
  facet normal 0.000000e+00 0.000000e+00 1.000000e+00
    outer loop
      vertex   -1.451423e+00 1.765847e+02 1.600000e+00
      vertex   1.451423e+00 1.765847e+02 1.600000e+00
      vertex   -9.754516e-01 1.767039e+02 1.600000e+00
    endloop
  endfacet
  facet normal -0.000000e+00 0.000000e+00 1.000000e+00
    outer loop
      vertex   -9.754516e-01 1.767039e+02 1.600000e+00
      vertex   1.451423e+00 1.765847e+02 1.600000e+00
      vertex   9.754516e-01 1.767039e+02 1.600000e+00
    endloop
  endfacet
  facet normal 0.000000e+00 0.000000e+00 1.000000e+00
    outer loop
      vertex   -9.754516e-01 1.767039e+02 1.600000e+00
      vertex   9.754516e-01 1.767039e+02 1.600000e+00
      vertex   -4.900857e-01 1.767759e+02 1.600000e+00
    endloop
  endfacet
  facet normal -0.000000e+00 0.000000e+00 1.000000e+00
    outer loop
      vertex   -4.900857e-01 1.767759e+02 1.600000e+00
      vertex   9.754516e-01 1.767039e+02 1.600000e+00
      vertex   4.900857e-01 1.767759e+02 1.600000e+00
    endloop
  endfacet
  facet normal 0.000000e+00 0.000000e+00 1.000000e+00
    outer loop
      vertex   -4.900857e-01 1.767759e+02 1.600000e+00
      vertex   4.900857e-01 1.767759e+02 1.600000e+00
      vertex   3.061617e-16 1.768000e+02 1.600000e+00
    endloop
  endfacet
  facet normal 0.000000e+00 0.000000e+00 1.000000e+00
    outer loop
      vertex   -2.000000e+01 7.000000e+01 1.600000e+00
      vertex   -5.000000e+00 7.000000e+01 1.600000e+00
      vertex   -2.000000e+01 1.700000e+02 1.600000e+00
    endloop
  endfacet
  facet normal 0.000000e+00 0.000000e+00 1.000000e+00
    outer loop
      vertex   -2.000000e+01 1.700000e+02 1.600000e+00
      vertex   -5.000000e+00 7.000000e+01 1.600000e+00
      vertex   5.000000e+00 7.000000e+01 1.600000e+00
    endloop
  endfacet
  facet normal 0.000000e+00 0.000000e+00 1.000000e+00
    outer loop
      vertex   -2.000000e+01 1.700000e+02 1.600000e+00
      vertex   5.000000e+00 7.000000e+01 1.600000e+00
      vertex   2.000000e+01 7.000000e+01 1.600000e+00
    endloop
  endfacet
  facet normal -0.000000e+00 0.000000e+00 1.000000e+00
    outer loop
      vertex   -5.000000e+00 6.820000e+01 1.600000e+00
      vertex   -4.619398e+00 6.628658e+01 1.600000e+00
      vertex   -5.000000e+00 7.000000e+01 1.600000e+00
    endloop
  endfacet
  facet normal 0.000000e+00 0.000000e+00 1.000000e+00
    outer loop
      vertex   -5.000000e+00 7.000000e+01 1.600000e+00
      vertex   -4.619398e+00 6.628658e+01 1.600000e+00
      vertex   -4.409606e+00 6.584302e+01 1.600000e+00
    endloop
  endfacet
  facet normal 0.000000e+00 0.000000e+00 1.000000e+00
    outer loop
      vertex   -5.000000e+00 7.000000e+01 1.600000e+00
      vertex   -4.409606e+00 6.584302e+01 1.600000e+00
      vertex   -4.157348e+00 6.542215e+01 1.600000e+00
    endloop
  endfacet
  facet normal -0.000000e+00 -0.000000e+00 1.000000e+00
    outer loop
      vertex   -4.975924e+00 6.770991e+01 1.600000e+00
      vertex   -4.903926e+00 6.722455e+01 1.600000e+00
      vertex   -5.000000e+00 6.820000e+01 1.600000e+00
    endloop
  endfacet
  facet normal 0.000000e+00 0.000000e+00 1.000000e+00
    outer loop
      vertex   -5.000000e+00 6.820000e+01 1.600000e+00
      vertex   -4.903926e+00 6.722455e+01 1.600000e+00
      vertex   -4.784702e+00 6.674858e+01 1.600000e+00
    endloop
  endfacet
  facet normal 0.000000e+00 0.000000e+00 1.000000e+00
    outer loop
      vertex   -5.000000e+00 6.820000e+01 1.600000e+00
      vertex   -4.784702e+00 6.674858e+01 1.600000e+00
      vertex   -4.619398e+00 6.628658e+01 1.600000e+00
    endloop
  endfacet
  facet normal -0.000000e+00 -0.000000e+00 1.000000e+00
    outer loop
      vertex   -4.157348e+00 6.542215e+01 1.600000e+00
      vertex   -3.865052e+00 6.502803e+01 1.600000e+00
      vertex   -5.000000e+00 7.000000e+01 1.600000e+00
    endloop
  endfacet
  facet normal 0.000000e+00 0.000000e+00 1.000000e+00
    outer loop
      vertex   -5.000000e+00 7.000000e+01 1.600000e+00
      vertex   -3.865052e+00 6.502803e+01 1.600000e+00
      vertex   -3.535534e+00 6.466447e+01 1.600000e+00
    endloop
  endfacet
  facet normal 0.000000e+00 0.000000e+00 1.000000e+00
    outer loop
      vertex   -5.000000e+00 7.000000e+01 1.600000e+00
      vertex   -3.535534e+00 6.466447e+01 1.600000e+00
      vertex   -3.171966e+00 6.433495e+01 1.600000e+00
    endloop
  endfacet
  facet normal -0.000000e+00 -0.000000e+00 1.000000e+00
    outer loop
      vertex   -3.171966e+00 6.433495e+01 1.600000e+00
      vertex   -2.777851e+00 6.404265e+01 1.600000e+00
      vertex   -5.000000e+00 7.000000e+01 1.600000e+00
    endloop
  endfacet
  facet normal 0.000000e+00 0.000000e+00 1.000000e+00
    outer loop
      vertex   -5.000000e+00 7.000000e+01 1.600000e+00
      vertex   -2.777851e+00 6.404265e+01 1.600000e+00
      vertex   -2.356984e+00 6.379039e+01 1.600000e+00
    endloop
  endfacet
  facet normal 0.000000e+00 0.000000e+00 1.000000e+00
    outer loop
      vertex   -5.000000e+00 7.000000e+01 1.600000e+00
      vertex   -2.356984e+00 6.379039e+01 1.600000e+00
      vertex   -1.913417e+00 6.358060e+01 1.600000e+00
    endloop
  endfacet
  facet normal -0.000000e+00 -0.000000e+00 1.000000e+00
    outer loop
      vertex   -1.913417e+00 6.358060e+01 1.600000e+00
      vertex   -1.451423e+00 6.341530e+01 1.600000e+00
      vertex   -5.000000e+00 7.000000e+01 1.600000e+00
    endloop
  endfacet
  facet normal 0.000000e+00 0.000000e+00 1.000000e+00
    outer loop
      vertex   -5.000000e+00 7.000000e+01 1.600000e+00
      vertex   -1.451423e+00 6.341530e+01 1.600000e+00
      vertex   -9.754516e-01 6.329607e+01 1.600000e+00
    endloop
  endfacet
  facet normal 0.000000e+00 0.000000e+00 1.000000e+00
    outer loop
      vertex   -5.000000e+00 7.000000e+01 1.600000e+00
      vertex   -9.754516e-01 6.329607e+01 1.600000e+00
      vertex   -4.900857e-01 6.322408e+01 1.600000e+00
    endloop
  endfacet
  facet normal -0.000000e+00 -0.000000e+00 1.000000e+00
    outer loop
      vertex   -4.900857e-01 6.322408e+01 1.600000e+00
      vertex   1.530808e-16 6.320000e+01 1.600000e+00
      vertex   -5.000000e+00 7.000000e+01 1.600000e+00
    endloop
  endfacet
  facet normal -0.000000e+00 0.000000e+00 1.000000e+00
    outer loop
      vertex   -5.000000e+00 7.000000e+01 1.600000e+00
      vertex   1.530808e-16 6.320000e+01 1.600000e+00
      vertex   5.000000e+00 7.000000e+01 1.600000e+00
    endloop
  endfacet
  facet normal 0.000000e+00 0.000000e+00 1.000000e+00
    outer loop
      vertex   1.530808e-16 6.320000e+01 1.600000e+00
      vertex   4.900857e-01 6.322408e+01 1.600000e+00
      vertex   5.000000e+00 7.000000e+01 1.600000e+00
    endloop
  endfacet
  facet normal 0.000000e+00 0.000000e+00 1.000000e+00
    outer loop
      vertex   5.000000e+00 7.000000e+01 1.600000e+00
      vertex   4.900857e-01 6.322408e+01 1.600000e+00
      vertex   9.754516e-01 6.329607e+01 1.600000e+00
    endloop
  endfacet
  facet normal 0.000000e+00 0.000000e+00 1.000000e+00
    outer loop
      vertex   5.000000e+00 7.000000e+01 1.600000e+00
      vertex   9.754516e-01 6.329607e+01 1.600000e+00
      vertex   1.451423e+00 6.341530e+01 1.600000e+00
    endloop
  endfacet
  facet normal 0.000000e+00 0.000000e+00 1.000000e+00
    outer loop
      vertex   1.451423e+00 6.341530e+01 1.600000e+00
      vertex   1.913417e+00 6.358060e+01 1.600000e+00
      vertex   5.000000e+00 7.000000e+01 1.600000e+00
    endloop
  endfacet
  facet normal 0.000000e+00 0.000000e+00 1.000000e+00
    outer loop
      vertex   5.000000e+00 7.000000e+01 1.600000e+00
      vertex   1.913417e+00 6.358060e+01 1.600000e+00
      vertex   2.356984e+00 6.379039e+01 1.600000e+00
    endloop
  endfacet
  facet normal 0.000000e+00 0.000000e+00 1.000000e+00
    outer loop
      vertex   5.000000e+00 7.000000e+01 1.600000e+00
      vertex   2.356984e+00 6.379039e+01 1.600000e+00
      vertex   2.777851e+00 6.404265e+01 1.600000e+00
    endloop
  endfacet
  facet normal 0.000000e+00 0.000000e+00 1.000000e+00
    outer loop
      vertex   2.777851e+00 6.404265e+01 1.600000e+00
      vertex   3.171966e+00 6.433495e+01 1.600000e+00
      vertex   5.000000e+00 7.000000e+01 1.600000e+00
    endloop
  endfacet
  facet normal 0.000000e+00 0.000000e+00 1.000000e+00
    outer loop
      vertex   5.000000e+00 7.000000e+01 1.600000e+00
      vertex   3.171966e+00 6.433495e+01 1.600000e+00
      vertex   3.535534e+00 6.466447e+01 1.600000e+00
    endloop
  endfacet
  facet normal 0.000000e+00 0.000000e+00 1.000000e+00
    outer loop
      vertex   5.000000e+00 7.000000e+01 1.600000e+00
      vertex   3.535534e+00 6.466447e+01 1.600000e+00
      vertex   3.865052e+00 6.502803e+01 1.600000e+00
    endloop
  endfacet
  facet normal 0.000000e+00 0.000000e+00 1.000000e+00
    outer loop
      vertex   3.865052e+00 6.502803e+01 1.600000e+00
      vertex   4.157348e+00 6.542215e+01 1.600000e+00
      vertex   5.000000e+00 7.000000e+01 1.600000e+00
    endloop
  endfacet
  facet normal 0.000000e+00 0.000000e+00 1.000000e+00
    outer loop
      vertex   5.000000e+00 7.000000e+01 1.600000e+00
      vertex   4.157348e+00 6.542215e+01 1.600000e+00
      vertex   4.409606e+00 6.584302e+01 1.600000e+00
    endloop
  endfacet
  facet normal 0.000000e+00 0.000000e+00 1.000000e+00
    outer loop
      vertex   5.000000e+00 7.000000e+01 1.600000e+00
      vertex   4.409606e+00 6.584302e+01 1.600000e+00
      vertex   4.619398e+00 6.628658e+01 1.600000e+00
    endloop
  endfacet
  facet normal 0.000000e+00 0.000000e+00 1.000000e+00
    outer loop
      vertex   5.000000e+00 7.000000e+01 1.600000e+00
      vertex   4.619398e+00 6.628658e+01 1.600000e+00
      vertex   5.000000e+00 6.820000e+01 1.600000e+00
    endloop
  endfacet
  facet normal 0.000000e+00 0.000000e+00 1.000000e+00
    outer loop
      vertex   5.000000e+00 6.820000e+01 1.600000e+00
      vertex   4.619398e+00 6.628658e+01 1.600000e+00
      vertex   4.784702e+00 6.674858e+01 1.600000e+00
    endloop
  endfacet
  facet normal 0.000000e+00 0.000000e+00 1.000000e+00
    outer loop
      vertex   5.000000e+00 6.820000e+01 1.600000e+00
      vertex   4.784702e+00 6.674858e+01 1.600000e+00
      vertex   4.903926e+00 6.722455e+01 1.600000e+00
    endloop
  endfacet
  facet normal 0.000000e+00 0.000000e+00 1.000000e+00
    outer loop
      vertex   4.903926e+00 6.722455e+01 1.600000e+00
      vertex   4.975924e+00 6.770991e+01 1.600000e+00
      vertex   5.000000e+00 6.820000e+01 1.600000e+00
    endloop
  endfacet
endsolid
